<?xml version="1.0" encoding="UTF-8" standalone="no"?>
<svg
   xmlns:dc="http://purl.org/dc/elements/1.1/"
   xmlns:cc="http://creativecommons.org/ns#"
   xmlns:rdf="http://www.w3.org/1999/02/22-rdf-syntax-ns#"
   xmlns:svg="http://www.w3.org/2000/svg"
   xmlns="http://www.w3.org/2000/svg"
   xmlns:xlink="http://www.w3.org/1999/xlink"
   version="1.1"
   id="svg9732"
   height="24"
   width="24">
  <defs
     id="defs9734">
    <linearGradient
       id="linearGradient4233">
      <stop
         id="stop4235"
         offset="0"
         style="stop-color:#64baff;stop-opacity:1;" />
      <stop
         id="stop4237"
         offset="1"
         style="stop-color:#0d52bf;stop-opacity:1" />
    </linearGradient>
    <linearGradient
       id="linearGradient4225">
      <stop
         id="stop4227"
         offset="0"
         style="stop-color:#ffffff;stop-opacity:1;" />
      <stop
         id="stop4229"
         offset="1"
         style="stop-color:#ffffff;stop-opacity:0;" />
    </linearGradient>
    <linearGradient
       y2="-34"
       x2="59.491524"
       y1="-34"
       x1="0.50847417"
       gradientTransform="matrix(0.32758621,0,0,0.41304349,-1050.1898,2.0434782)"
       gradientUnits="userSpaceOnUse"
       id="linearGradient7095"
       xlink:href="#linearGradient3104-6" />
    <linearGradient
       id="linearGradient3104-6">
      <stop
         id="stop3106-3"
         style="stop-color:#000000;stop-opacity:0.31782946"
         offset="0" />
      <stop
         id="stop3108-9"
         style="stop-color:#000000;stop-opacity:0.24031007"
         offset="1" />
    </linearGradient>
    <linearGradient
       y2="-34"
       x2="60.705528"
       y1="-34"
       x1="-0.70623529"
       gradientTransform="matrix(0.29310345,0,0,0.36956521,1031.5692,0.56521734)"
       gradientUnits="userSpaceOnUse"
       id="linearGradient7004"
       xlink:href="#linearGradient3977-4-9" />
    <linearGradient
       id="linearGradient3977-4-9">
      <stop
         offset="0"
         style="stop-color:#ffffff;stop-opacity:1"
         id="stop3979-7-0" />
      <stop
         offset="0.11526726"
         style="stop-color:#ffffff;stop-opacity:0.23529412"
         id="stop3981-6-9" />
      <stop
         offset="0.8888889"
         style="stop-color:#ffffff;stop-opacity:0.15686275"
         id="stop3983-5-2" />
      <stop
         offset="1"
         style="stop-color:#ffffff;stop-opacity:0.39215687"
         id="stop3985-6-8" />
    </linearGradient>
    <linearGradient
       gradientTransform="matrix(0.49450547,0,0,0.53412461,1025.4281,-27.516319)"
       gradientUnits="userSpaceOnUse"
       y2="29.049999"
       x2="48.400002"
       y1="29.049999"
       x1="12"
       id="linearGradient6996"
       xlink:href="#linearGradient3600-9-3" />
    <linearGradient
       id="linearGradient3600-9-3">
      <stop
         offset="0"
         style="stop-color:#fafafa;stop-opacity:1"
         id="stop3602-3-0" />
      <stop
         offset="1"
         style="stop-color:#e1e1e1;stop-opacity:1"
         id="stop3604-7-1" />
    </linearGradient>
    <linearGradient
       id="linearGradient3688-464-309">
      <stop
         offset="0"
         style="stop-color:#181818;stop-opacity:1"
         id="stop2889" />
      <stop
         offset="1"
         style="stop-color:#181818;stop-opacity:0"
         id="stop2891" />
    </linearGradient>
    <linearGradient
       id="linearGradient3702-501-757">
      <stop
         offset="0"
         style="stop-color:#181818;stop-opacity:0"
         id="stop2895" />
      <stop
         offset="0.5"
         style="stop-color:#181818;stop-opacity:1"
         id="stop2897" />
      <stop
         offset="1"
         style="stop-color:#181818;stop-opacity:0"
         id="stop2899" />
    </linearGradient>
    <linearGradient
       y2="39.999443"
       x2="25.058096"
       y1="47.027729"
       x1="25.058096"
       gradientTransform="matrix(0.57896433,0,0,0.42857138,-1.8946427,1031.2194)"
       gradientUnits="userSpaceOnUse"
       id="linearGradient9906"
       xlink:href="#linearGradient3702-501-757" />
    <radialGradient
       r="2.5"
       fy="43.5"
       fx="4.9929786"
       cy="43.5"
       cx="4.9929786"
       gradientTransform="matrix(1.1601908,0,0,0.59999999,-9.6918727,-1075.9622)"
       gradientUnits="userSpaceOnUse"
       id="radialGradient9909"
       xlink:href="#linearGradient3688-464-309" />
    <radialGradient
       r="2.5"
       fy="43.5"
       fx="4.9929786"
       cy="43.5"
       cx="4.9929786"
       gradientTransform="matrix(1.1601908,0,0,0.59999999,14.308127,1023.7622)"
       gradientUnits="userSpaceOnUse"
       id="radialGradient9912"
       xlink:href="#linearGradient3688-464-309" />
    <linearGradient
       gradientTransform="matrix(0.76604444,-0.64278761,0.64278761,0.76604444,-665.39153,250.84296)"
       gradientUnits="userSpaceOnUse"
       y2="1040.3622"
       x2="12"
       y1="1049.3622"
       x1="12"
       id="linearGradient4231"
       xlink:href="#linearGradient4225" />
    <linearGradient
       gradientTransform="matrix(0.76604444,-0.64278761,0.64278761,0.76604444,-665.39153,250.84296)"
       gradientUnits="userSpaceOnUse"
       y2="1049.3622"
       x2="12"
       y1="1031.3622"
       x1="12"
       id="linearGradient4239"
       xlink:href="#linearGradient4233" />
  </defs>
  <metadata
     id="metadata9737">
    <rdf:RDF>
      <cc:Work
         rdf:about="">
        <dc:format>image/svg+xml</dc:format>
        <dc:type
           rdf:resource="http://purl.org/dc/dcmitype/StillImage" />
        <dc:title></dc:title>
      </cc:Work>
    </rdf:RDF>
  </metadata>
  <g
     transform="translate(0,-1028.3622)"
     id="layer1">
    <g
       id="g9914">
      <rect
         style="opacity:0.4;fill:url(#radialGradient9912);fill-opacity:1.0;stroke:none"
         id="rect2801"
         y="1048.3622"
         x="20.105"
         height="3"
         width="2.895" />
      <rect
         style="opacity:0.4;fill:url(#radialGradient9909);fill-opacity:1;stroke:none"
         id="rect3696"
         transform="scale(-1,-1)"
         y="-1051.3622"
         x="-3.895"
         height="3"
         width="2.895" />
      <rect
         style="opacity:0.4;fill:url(#linearGradient9906);fill-opacity:1;stroke:none"
         id="rect3700"
         y="1048.3622"
         x="3.895"
         height="3"
         width="16.211" />
    </g>
    <rect
       transform="matrix(0,1,-1,0,0,0)"
       y="-21"
       x="1031.3622"
       height="18"
       width="18"
       id="rect6994"
       style="fill:url(#linearGradient6996);stroke:none" />
    <rect
       transform="matrix(0,1,-1,0,0,0)"
       y="-20.5"
       x="1031.8622"
       height="17"
       width="17"
       id="rect7002"
       style="fill:none;stroke:url(#linearGradient7004);stroke-width:1" />
    <rect
       style="fill:none;stroke:url(#linearGradient7095);stroke-width:0.99999988"
       id="rect6998"
       width="19"
       height="19"
       x="-1049.8623"
       y="-21.5"
       rx="1"
       ry="1"
       transform="matrix(0,-1,-1,0,0,0)" />
    <g
       transform="matrix(0.76604444,0.64278761,-0.64278761,0.76604444,670.95826,235.54857)"
       id="g4343">
      <path
         id="path4223"
         d="m 13.000005,1031.3622 c -0.553998,0 -0.99998,0.446 -0.999972,1 l -2.9e-5,10 -3.9999677,0 c -0.5539972,0 -0.9999795,0.4461 -0.9999722,1.0001 l -5.72e-5,1.9999 c 7.4e-6,0.554 0.4460465,1.0001 1.0000437,1 l 6.9999274,0 c 0.553997,0 0.999979,-0.4461 0.999972,-1.0001 L 16,1032.3622 c -7e-6,-0.554 -0.445982,-1 -0.999979,-1 z"
         style="opacity:1;fill:none;fill-opacity:1;stroke:url(#linearGradient4231);stroke-width:2;stroke-linecap:square;stroke-linejoin:round;stroke-miterlimit:4;stroke-dasharray:none;stroke-opacity:1" />
      <path
         style="opacity:1;fill:url(#linearGradient4239);fill-opacity:1;stroke:none;stroke-width:2;stroke-linecap:square;stroke-linejoin:round;stroke-miterlimit:4;stroke-dasharray:none;stroke-opacity:1"
         d="m 13.000005,1031.3622 c -0.553998,0 -0.99998,0.446 -0.999972,1 l -2.9e-5,10 -3.9999677,0 c -0.5539972,0 -0.9999795,0.4461 -0.9999722,1.0001 l -5.72e-5,1.9999 c 7.4e-6,0.554 0.4460465,1.0001 1.0000437,1 l 6.9999274,0 c 0.553997,0 0.999979,-0.4461 0.999972,-1.0001 L 16,1032.3622 c -7e-6,-0.554 -0.445982,-1 -0.999979,-1 z"
         id="rect4212" />
      <path
         style="opacity:0.23999999;fill:#000000;fill-opacity:1;stroke:none;stroke-width:2;stroke-linecap:square;stroke-linejoin:round;stroke-miterlimit:4;stroke-dasharray:none;stroke-opacity:1"
         d="m 13,3 c -0.553998,0 -1.000008,0.446 -1,1 l 0,10 -4,0 c -0.5539972,0 -1.0000073,0.446 -1,1 l 0,2 c 7.4e-6,0.554 0.4460028,1.0001 1,1 l 0,-3 5,0 0,-11 3,0 c -7e-6,-0.554 -0.446003,-1 -1,-1 l -2,0 z"
         transform="translate(0,1028.3622)"
         id="path4328" />
      <path
         style="opacity:0.12000002;fill:#000000;fill-opacity:1;stroke:none;stroke-width:2;stroke-linecap:square;stroke-linejoin:round;stroke-miterlimit:4;stroke-dasharray:none;stroke-opacity:1"
         d="m 13,4 0,11 -5,0 0,3 1,0 0,-2 5,0 0,-11 2,0 0,-1 z"
         transform="translate(0,1028.3622)"
         id="rect4332" />
    </g>
  </g>
</svg>
