<?xml version="1.0" encoding="UTF-8" standalone="no"?>
<svg
   xmlns:dc="http://purl.org/dc/elements/1.1/"
   xmlns:cc="http://creativecommons.org/ns#"
   xmlns:rdf="http://www.w3.org/1999/02/22-rdf-syntax-ns#"
   xmlns:svg="http://www.w3.org/2000/svg"
   xmlns="http://www.w3.org/2000/svg"
   xmlns:xlink="http://www.w3.org/1999/xlink"
   width="32"
   height="32"
   id="svg8941"
   version="1.1">
  <defs
     id="defs8943">
    <linearGradient
       id="linearGradient4241">
      <stop
         style="stop-color:#ffffff;stop-opacity:1;"
         offset="0"
         id="stop4243" />
      <stop
         style="stop-color:#ffffff;stop-opacity:0;"
         offset="1"
         id="stop4245" />
    </linearGradient>
    <linearGradient
       id="linearGradient4231">
      <stop
         style="stop-color:#64baff;stop-opacity:1;"
         offset="0"
         id="stop4233" />
      <stop
         style="stop-color:#0d52bf;stop-opacity:1"
         offset="1"
         id="stop4235" />
    </linearGradient>
    <linearGradient
       xlink:href="#linearGradient3104-6"
       id="linearGradient7095"
       gradientUnits="userSpaceOnUse"
       gradientTransform="matrix(0.46551725,0,0,0.58695653,-1050.3277,3.9565217)"
       x1="0.50847417"
       y1="-34"
       x2="59.491524"
       y2="-34" />
    <linearGradient
       id="linearGradient3104-6">
      <stop
         offset="0"
         style="stop-color:#000000;stop-opacity:0.31782946"
         id="stop3106-3" />
      <stop
         offset="1"
         style="stop-color:#000000;stop-opacity:0.24031007"
         id="stop3108-9" />
    </linearGradient>
    <linearGradient
       xlink:href="#linearGradient3977-4-9"
       id="linearGradient7004"
       gradientUnits="userSpaceOnUse"
       gradientTransform="matrix(0.43103448,0,0,0.54347824,1023.4312,2.4782608)"
       x1="-0.26100001"
       y1="-34"
       x2="60.260738"
       y2="-34" />
    <linearGradient
       id="linearGradient3977-4-9">
      <stop
         id="stop3979-7-0"
         style="stop-color:#ffffff;stop-opacity:1"
         offset="0" />
      <stop
         id="stop3981-6-9"
         style="stop-color:#ffffff;stop-opacity:0.23529412"
         offset="0.08333334" />
      <stop
         id="stop3983-5-2"
         style="stop-color:#ffffff;stop-opacity:0.15686275"
         offset="0.91666669" />
      <stop
         id="stop3985-6-8"
         style="stop-color:#ffffff;stop-opacity:0.39215687"
         offset="1" />
    </linearGradient>
    <linearGradient
       xlink:href="#linearGradient3600-9-3"
       id="linearGradient6996"
       x1="12"
       y1="29.049999"
       x2="48.400002"
       y2="29.049999"
       gradientUnits="userSpaceOnUse"
       gradientTransform="matrix(0.71428568,0,0,0.77151333,1014.7908,-38.41246)" />
    <linearGradient
       id="linearGradient3600-9-3">
      <stop
         id="stop3602-3-0"
         style="stop-color:#fafafa;stop-opacity:1"
         offset="0" />
      <stop
         id="stop3604-7-1"
         style="stop-color:#e1e1e1;stop-opacity:1"
         offset="1" />
    </linearGradient>
    <linearGradient
       id="linearGradient3688-464-309">
      <stop
         id="stop2889"
         style="stop-color:#181818;stop-opacity:1"
         offset="0" />
      <stop
         id="stop2891"
         style="stop-color:#181818;stop-opacity:0"
         offset="1" />
    </linearGradient>
    <linearGradient
       id="linearGradient3702-501-757">
      <stop
         id="stop2895"
         style="stop-color:#181818;stop-opacity:0"
         offset="0" />
      <stop
         id="stop2897"
         style="stop-color:#181818;stop-opacity:1"
         offset="0.5" />
      <stop
         id="stop2899"
         style="stop-color:#181818;stop-opacity:0"
         offset="1" />
    </linearGradient>
    <linearGradient
       xlink:href="#linearGradient3702-501-757"
       id="linearGradient9370"
       gradientUnits="userSpaceOnUse"
       gradientTransform="matrix(0.73685719,0,0,0.57142851,-1.6845711,1024.5051)"
       x1="25.058096"
       y1="47.027729"
       x2="25.058096"
       y2="39.999443" />
    <radialGradient
       xlink:href="#linearGradient3688-464-309"
       id="radialGradient9373"
       gradientUnits="userSpaceOnUse"
       gradientTransform="matrix(1.476388,0,0,0.79999999,-13.060746,-1084.1622)"
       cx="4.9929786"
       cy="43.5"
       fx="4.9929786"
       fy="43.5"
       r="2.5" />
    <radialGradient
       xlink:href="#linearGradient3688-464-309"
       id="radialGradient9376"
       gradientUnits="userSpaceOnUse"
       gradientTransform="matrix(1.476388,0,0,0.79999999,18.939254,1014.5622)"
       cx="4.9929786"
       cy="43.5"
       fx="4.9929786"
       fy="43.5"
       r="2.5" />
    <linearGradient
       xlink:href="#linearGradient4231"
       id="linearGradient4237"
       x1="12.390639"
       y1="997.96484"
       x2="22.675241"
       y2="1010.2216"
       gradientUnits="userSpaceOnUse"
       gradientTransform="matrix(0.76604444,0.64278761,-0.64278761,0.76604444,647.98765,255.91224)" />
    <linearGradient
       xlink:href="#linearGradient4241"
       id="linearGradient4247"
       x1="22.675241"
       y1="1043.2216"
       x2="17.53294"
       y2="1037.0933"
       gradientUnits="userSpaceOnUse"
       gradientTransform="matrix(0.76604444,0.64278761,-0.64278761,0.76604444,669.19965,230.63276)" />
    <linearGradient
       xlink:href="#linearGradient4231"
       id="linearGradient4374"
       x1="7.875"
       y1="1011.889"
       x2="7.875"
       y2="1017.889"
       gradientUnits="userSpaceOnUse"
       gradientTransform="translate(-1.875,11.473233)" />
    <linearGradient
       xlink:href="#linearGradient4231"
       id="linearGradient4405"
       gradientUnits="userSpaceOnUse"
       gradientTransform="translate(-1.875,11.473233)"
       x1="7.875"
       y1="1011.889"
       x2="7.875"
       y2="1017.889" />
    <linearGradient
       xlink:href="#linearGradient4231"
       id="linearGradient4415"
       gradientUnits="userSpaceOnUse"
       gradientTransform="translate(-1.875,11.473233)"
       x1="7.875"
       y1="1011.889"
       x2="7.875"
       y2="1017.889" />
  </defs>
  <metadata
     id="metadata8946">
    <rdf:RDF>
      <cc:Work
         rdf:about="">
        <dc:format>image/svg+xml</dc:format>
        <dc:type
           rdf:resource="http://purl.org/dc/dcmitype/StillImage" />
        <dc:title></dc:title>
      </cc:Work>
    </rdf:RDF>
  </metadata>
  <g
     id="layer1"
     transform="translate(0,-1020.3622)">
    <g
       id="g9378">
      <rect
         width="3.684"
         height="4"
         x="26.316"
         y="1047.3622"
         id="rect2801"
         style="opacity:0.4;fill:url(#radialGradient9376);fill-opacity:1;stroke:none" />
      <rect
         width="3.684"
         height="4"
         x="-5.684"
         y="-1051.3622"
         transform="scale(-1,-1)"
         id="rect3696"
         style="opacity:0.4;fill:url(#radialGradient9373);fill-opacity:1;stroke:none" />
      <rect
         width="20.632"
         height="4"
         x="5.684"
         y="1047.3622"
         id="rect3700"
         style="opacity:0.4;fill:url(#linearGradient9370);fill-opacity:1;stroke:none" />
    </g>
    <rect
       style="fill:url(#linearGradient6996);stroke:none"
       id="rect6994"
       width="26"
       height="26"
       x="1023.3622"
       y="-29"
       rx="1.5"
       ry="1.5"
       transform="matrix(0,1,-1,0,0,0)" />
    <rect
       style="fill:none;stroke:url(#linearGradient7004);stroke-width:1"
       id="rect7002"
       width="25"
       height="25"
       x="1023.8622"
       y="-28.5"
       rx="1"
       ry="1"
       transform="matrix(0,1,-1,0,0,0)" />
    <rect
       transform="matrix(0,-1,-1,0,0,0)"
       ry="2"
       rx="2"
       y="-29.5"
       x="-1049.8622"
       height="27"
       width="27"
       id="rect6998"
       style="fill:none;stroke:url(#linearGradient7095);stroke-width:0.99999994" />
    <g
       id="g4344"
       style="opacity:0.25">
      <g
         style="font-style:normal;font-variant:normal;font-weight:normal;font-stretch:normal;font-size:3.75px;line-height:125%;font-family:'Redacted Script';-inkscape-font-specification:'Redacted Script';text-align:start;letter-spacing:0px;word-spacing:0px;text-anchor:start;fill:#ffffff;fill-opacity:1;stroke:none;stroke-width:1px;stroke-linecap:butt;stroke-linejoin:miter;stroke-opacity:1"
         id="text4332">
        <path
           d="m 13.414,1034.4672 q -0.03,0 -0.05625,-0 -0.0225,-0 -0.04875,-0.011 -0.0675,-0.019 -0.09375,-0.079 -0.03375,-0.075 0,-0.18 0.0375,-0.1087 0.12,-0.2775 0.015,-0.03 0.03,-0.067 0.015,-0.038 0.03375,-0.071 -0.04875,0.019 -0.105,0.064 -0.0525,0.041 -0.10875,0.086 -0.0375,0.03 -0.0825,0.022 -0.04875,-0.01 -0.07875,-0.041 -0.03,-0.038 -0.0225,-0.082 0.0075,-0.045 0.04125,-0.079 0.0525,-0.037 0.10875,-0.082 0.05625,-0.045 0.12,-0.075 0.15375,-0.079 0.28125,-0.041 0.06,0.011 0.09,0.075 0.03,0.064 -0.0038,0.15 -0.03,0.086 -0.105,0.2438 -0.01875,0.045 -0.04125,0.09 -0.01875,0.045 -0.0375,0.086 -0.0075,0.015 -0.01125,0.026 -0.0038,0.011 -0.0075,0.022 0.0375,-0 0.09375,-0.022 0.06,-0.019 0.135,-0.056 0.07875,-0.041 0.18,-0.1087 0.10125,-0.067 0.2325,-0.1688 0.10125,-0.082 0.19125,-0.1612 0.09,-0.079 0.1575,-0.1425 0.0675,-0.064 0.10875,-0.105 0.04125,-0.041 0.04125,-0.041 0.045,-0.053 0.10875,-0.034 0.03,0.01 0.04875,0.026 0.01875,0.019 0.03,0.037 0.02625,0.053 0.0038,0.1238 -0.0225,0.071 -0.0825,0.2212 -0.0225,0.049 -0.045,0.098 -0.01875,0.049 -0.0375,0.09 -0.0038,0.019 -0.01125,0.041 0.0525,-0.01 0.1125,-0.041 0.06,-0.034 0.12,-0.075 0.06,-0.041 0.1125,-0.086 0.0525,-0.049 0.09375,-0.082 0.0375,-0.034 0.0825,-0.03 0.045,0 0.07875,0.037 0.03,0.038 0.02625,0.083 0,0.045 -0.0375,0.079 -0.08625,0.079 -0.17625,0.15 -0.09,0.068 -0.18375,0.12 -0.09,0.049 -0.18375,0.071 -0.09375,0.019 -0.18375,-0 -0.06,-0.023 -0.08625,-0.075 -0.0225,-0.053 -0.015,-0.1125 0.01125,-0.064 0.045,-0.1612 -0.04125,0.037 -0.08625,0.071 -0.04125,0.034 -0.09,0.075 -0.5175,0.4088 -0.80625,0.4088 z"
           id="path4325"
           style="" />
        <path
           d="m 15.961188,1034.2534 q -0.045,0 -0.075,-0.026 -0.06,-0.049 -0.03375,-0.1238 0,-0 0.02625,-0.09 0.03,-0.086 0.0675,-0.195 0.01875,-0.064 0.03375,-0.1087 0.015,-0.049 0.02625,-0.086 -0.07875,0.03 -0.18,0.068 -0.10125,0.037 -0.2175,0.082 -0.1125,0.041 -0.2325,0.086 -0.12,0.045 -0.2325,0.086 -0.04125,0.015 -0.0825,-0 -0.045,-0.023 -0.06375,-0.067 -0.015,-0.041 0.0075,-0.082 0.01875,-0.045 0.06375,-0.064 0.16875,-0.06 0.34875,-0.1275 0.18375,-0.067 0.33375,-0.1237 0.15,-0.056 0.2475,-0.094 0.10125,-0.037 0.10125,-0.037 0.01875,-0 0.03375,-0 0.01875,-0 0.0375,0 0.0525,0.01 0.075,0.06 0.01875,0.03 0.015,0.079 0,0.045 -0.01875,0.1312 -0.01125,0.049 -0.03,0.1088 -0.015,0.056 -0.04125,0.1312 -0.0038,0.015 -0.0075,0.026 -0.0038,0.011 -0.0075,0.026 0.15,-0.082 0.3675,-0.1725 0.04125,-0.019 0.0825,0 0.04125,0.015 0.06,0.056 0.0225,0.041 0.0038,0.086 -0.01875,0.045 -0.06,0.064 -0.1275,0.056 -0.23625,0.1087 -0.10875,0.053 -0.1875,0.094 -0.09375,0.049 -0.16875,0.09 -0.0225,0.019 -0.05625,0.019 z"
           id="path4327"
           style="" />
        <path
           d="m 16.863707,1034.4672 q -0.03,0 -0.05625,-0 -0.0225,-0 -0.04875,-0.011 -0.0675,-0.019 -0.09375,-0.079 -0.03375,-0.075 0,-0.18 0.0375,-0.1087 0.12,-0.2775 0.015,-0.03 0.03,-0.067 0.015,-0.038 0.03375,-0.071 -0.04875,0.019 -0.105,0.064 -0.0525,0.041 -0.10875,0.086 -0.0375,0.03 -0.0825,0.022 -0.04875,-0.01 -0.07875,-0.041 -0.03,-0.038 -0.0225,-0.082 0.0075,-0.045 0.04125,-0.079 0.0525,-0.037 0.10875,-0.082 0.05625,-0.045 0.12,-0.075 0.15375,-0.079 0.28125,-0.041 0.06,0.011 0.09,0.075 0.03,0.064 -0.0038,0.15 -0.03,0.086 -0.105,0.2438 -0.01875,0.045 -0.04125,0.09 -0.01875,0.045 -0.0375,0.086 -0.0075,0.015 -0.01125,0.026 -0.0038,0.011 -0.0075,0.022 0.0375,-0 0.09375,-0.022 0.06,-0.019 0.135,-0.056 0.07875,-0.041 0.18,-0.1087 0.10125,-0.067 0.2325,-0.1688 0.10125,-0.082 0.19125,-0.1612 0.09,-0.079 0.1575,-0.1425 0.0675,-0.064 0.10875,-0.105 0.04125,-0.041 0.04125,-0.041 0.045,-0.053 0.10875,-0.034 0.03,0.01 0.04875,0.026 0.01875,0.019 0.03,0.037 0.02625,0.053 0.0038,0.1238 -0.0225,0.071 -0.0825,0.2212 -0.0225,0.049 -0.045,0.098 -0.01875,0.049 -0.0375,0.09 -0.0038,0.019 -0.01125,0.041 0.0525,-0.01 0.1125,-0.041 0.06,-0.034 0.12,-0.075 0.06,-0.041 0.1125,-0.086 0.0525,-0.049 0.09375,-0.082 0.0375,-0.034 0.0825,-0.03 0.045,0 0.07875,0.037 0.03,0.038 0.02625,0.083 0,0.045 -0.0375,0.079 -0.08625,0.079 -0.17625,0.15 -0.09,0.068 -0.18375,0.12 -0.09,0.049 -0.18375,0.071 -0.09375,0.019 -0.18375,-0 -0.06,-0.023 -0.08625,-0.075 -0.0225,-0.053 -0.015,-0.1125 0.01125,-0.064 0.045,-0.1612 -0.04125,0.037 -0.08625,0.071 -0.04125,0.034 -0.09,0.075 -0.5175,0.4088 -0.80625,0.4088 z"
           id="path4329"
           style="" />
        <path
           d="m 18.855895,1034.4672 q -0.03,0 -0.05625,-0 -0.0225,-0 -0.04875,-0.011 -0.0675,-0.019 -0.09375,-0.079 -0.03375,-0.075 0,-0.18 0.0375,-0.1087 0.12,-0.2775 0.015,-0.03 0.03,-0.067 0.015,-0.038 0.03375,-0.071 -0.04875,0.019 -0.105,0.064 -0.0525,0.041 -0.10875,0.086 -0.0375,0.03 -0.0825,0.022 -0.04875,-0.01 -0.07875,-0.041 -0.03,-0.038 -0.0225,-0.082 0.0075,-0.045 0.04125,-0.079 0.0525,-0.037 0.10875,-0.082 0.05625,-0.045 0.12,-0.075 0.15375,-0.079 0.28125,-0.041 0.06,0.011 0.09,0.075 0.03,0.064 -0.0037,0.15 -0.03,0.086 -0.105,0.2438 -0.01875,0.045 -0.04125,0.09 -0.01875,0.045 -0.0375,0.086 -0.0075,0.015 -0.01125,0.026 -0.0038,0.011 -0.0075,0.022 0.0375,-0 0.09375,-0.022 0.06,-0.019 0.135,-0.056 0.07875,-0.041 0.18,-0.1087 0.10125,-0.067 0.2325,-0.1688 0.10125,-0.082 0.19125,-0.1612 0.09,-0.079 0.1575,-0.1425 0.0675,-0.064 0.10875,-0.105 0.04125,-0.041 0.04125,-0.041 0.045,-0.053 0.10875,-0.034 0.03,0.01 0.04875,0.026 0.01875,0.019 0.03,0.037 0.02625,0.053 0.0037,0.1238 -0.0225,0.071 -0.0825,0.2212 -0.0225,0.049 -0.045,0.098 -0.01875,0.049 -0.0375,0.09 -0.0038,0.019 -0.01125,0.041 0.0525,-0.01 0.1125,-0.041 0.06,-0.034 0.12,-0.075 0.06,-0.041 0.1125,-0.086 0.0525,-0.049 0.09375,-0.082 0.0375,-0.034 0.0825,-0.03 0.045,0 0.07875,0.037 0.03,0.038 0.02625,0.083 0,0.045 -0.0375,0.079 -0.08625,0.079 -0.17625,0.15 -0.09,0.068 -0.18375,0.12 -0.09,0.049 -0.18375,0.071 -0.09375,0.019 -0.18375,-0 -0.06,-0.023 -0.08625,-0.075 -0.0225,-0.053 -0.015,-0.1125 0.01125,-0.064 0.045,-0.1612 -0.04125,0.037 -0.08625,0.071 -0.04125,0.034 -0.09,0.075 -0.5175,0.4088 -0.80625,0.4088 z"
           id="path4331"
           style="" />
        <path
           d="m 20.848082,1034.4672 q -0.03,0 -0.05625,-0 -0.0225,-0 -0.04875,-0.011 -0.0675,-0.019 -0.09375,-0.079 -0.03375,-0.075 0,-0.18 0.0375,-0.1087 0.12,-0.2775 0.015,-0.03 0.03,-0.067 0.015,-0.038 0.03375,-0.071 -0.04875,0.019 -0.105,0.064 -0.0525,0.041 -0.10875,0.086 -0.0375,0.03 -0.0825,0.022 -0.04875,-0.01 -0.07875,-0.041 -0.03,-0.038 -0.0225,-0.082 0.0075,-0.045 0.04125,-0.079 0.0525,-0.037 0.10875,-0.082 0.05625,-0.045 0.12,-0.075 0.15375,-0.079 0.28125,-0.041 0.06,0.011 0.09,0.075 0.03,0.064 -0.0038,0.15 -0.03,0.086 -0.105,0.2438 -0.01875,0.045 -0.04125,0.09 -0.01875,0.045 -0.0375,0.086 -0.0075,0.015 -0.01125,0.026 -0.0038,0.011 -0.0075,0.022 0.0375,-0 0.09375,-0.022 0.06,-0.019 0.135,-0.056 0.07875,-0.041 0.18,-0.1087 0.10125,-0.067 0.2325,-0.1688 0.10125,-0.082 0.19125,-0.1612 0.09,-0.079 0.1575,-0.1425 0.0675,-0.064 0.10875,-0.105 0.04125,-0.041 0.04125,-0.041 0.045,-0.053 0.10875,-0.034 0.03,0.01 0.04875,0.026 0.01875,0.019 0.03,0.037 0.02625,0.053 0.0038,0.1238 -0.0225,0.071 -0.0825,0.2212 -0.0225,0.049 -0.045,0.098 -0.01875,0.049 -0.0375,0.09 -0.0038,0.019 -0.01125,0.041 0.0525,-0.01 0.1125,-0.041 0.06,-0.034 0.12,-0.075 0.06,-0.041 0.1125,-0.086 0.0525,-0.049 0.09375,-0.082 0.0375,-0.034 0.0825,-0.03 0.045,0 0.07875,0.037 0.03,0.038 0.02625,0.083 0,0.045 -0.0375,0.079 -0.08625,0.079 -0.17625,0.15 -0.09,0.068 -0.18375,0.12 -0.09,0.049 -0.18375,0.071 -0.09375,0.019 -0.18375,-0 -0.06,-0.023 -0.08625,-0.075 -0.0225,-0.053 -0.015,-0.1125 0.01125,-0.064 0.045,-0.1612 -0.04125,0.037 -0.08625,0.071 -0.04125,0.034 -0.09,0.075 -0.5175,0.4088 -0.80625,0.4088 z"
           id="path4333"
           style="" />
        <path
           d="m 24.664,1034.4672 q -0.03,0 -0.05625,-0 -0.0225,-0 -0.04875,-0.011 -0.0675,-0.019 -0.09375,-0.079 -0.03375,-0.075 0,-0.18 0.0375,-0.1087 0.12,-0.2775 0.015,-0.03 0.03,-0.067 0.015,-0.038 0.03375,-0.071 -0.04875,0.019 -0.105,0.064 -0.0525,0.041 -0.10875,0.086 -0.0375,0.03 -0.0825,0.022 -0.04875,-0.01 -0.07875,-0.041 -0.03,-0.038 -0.0225,-0.082 0.0075,-0.045 0.04125,-0.079 0.0525,-0.037 0.10875,-0.082 0.05625,-0.045 0.12,-0.075 0.15375,-0.079 0.28125,-0.041 0.06,0.011 0.09,0.075 0.03,0.064 -0.0038,0.15 -0.03,0.086 -0.105,0.2438 -0.01875,0.045 -0.04125,0.09 -0.01875,0.045 -0.0375,0.086 -0.0075,0.015 -0.01125,0.026 -0.0038,0.011 -0.0075,0.022 0.0375,-0 0.09375,-0.022 0.06,-0.019 0.135,-0.056 0.07875,-0.041 0.18,-0.1087 0.10125,-0.067 0.2325,-0.1688 0.10125,-0.082 0.19125,-0.1612 0.09,-0.079 0.1575,-0.1425 0.0675,-0.064 0.10875,-0.105 0.04125,-0.041 0.04125,-0.041 0.045,-0.053 0.10875,-0.034 0.03,0.01 0.04875,0.026 0.01875,0.019 0.03,0.037 0.02625,0.053 0.0038,0.1238 -0.0225,0.071 -0.0825,0.2212 -0.0225,0.049 -0.045,0.098 -0.01875,0.049 -0.0375,0.09 -0.0038,0.019 -0.01125,0.041 0.0525,-0.01 0.1125,-0.041 0.06,-0.034 0.12,-0.075 0.06,-0.041 0.1125,-0.086 0.0525,-0.049 0.09375,-0.082 0.0375,-0.034 0.0825,-0.03 0.045,0 0.07875,0.037 0.03,0.038 0.02625,0.083 0,0.045 -0.0375,0.079 -0.08625,0.079 -0.17625,0.15 -0.09,0.068 -0.18375,0.12 -0.09,0.049 -0.18375,0.071 -0.09375,0.019 -0.18375,-0 -0.06,-0.023 -0.08625,-0.075 -0.0225,-0.053 -0.015,-0.1125 0.01125,-0.064 0.045,-0.1612 -0.04125,0.037 -0.08625,0.071 -0.04125,0.034 -0.09,0.075 -0.5175,0.4088 -0.80625,0.4088 z"
           id="path4335"
           style="" />
        <path
           d="m 26.828688,1034.4747 q -0.01875,0 -0.0375,-0 -0.01875,0 -0.04125,-0 -0.045,-0.015 -0.075,-0.064 -0.01125,-0.022 -0.015,-0.053 -0.0038,-0.034 0.0075,-0.097 0.015,-0.064 0.045,-0.1725 0.03375,-0.1125 0.09,-0.2887 -0.08625,0.03 -0.19125,0.071 -0.105,0.041 -0.2175,0.082 -0.04125,0.015 -0.0825,-0 -0.045,-0.023 -0.06375,-0.067 -0.015,-0.041 0.0075,-0.082 0.01875,-0.045 0.06375,-0.064 0.12,-0.045 0.2325,-0.086 0.1125,-0.041 0.19875,-0.071 0.08625,-0.034 0.13875,-0.053 0.0525,-0.023 0.0525,-0.023 0.0375,-0.015 0.07125,-0 0.04875,0.011 0.07125,0.056 0.01875,0.034 0.01125,0.06 -0.0038,0.026 -0.01125,0.056 -0.0075,0.015 -0.01125,0.034 -0.0037,0.015 -0.01125,0.037 -0.02625,0.064 -0.05625,0.1575 -0.02625,0.09 -0.05625,0.1838 -0.01875,0.053 -0.03,0.09 -0.01125,0.037 -0.01875,0.067 0.07125,-0.015 0.20625,-0.086 0.11625,-0.064 0.2475,-0.1462 0.13125,-0.082 0.27375,-0.18 0.03,-0.019 0.06,-0.038 0.03,-0.019 0.06,-0.041 0.04125,-0.026 0.08625,-0.015 0.045,0.01 0.075,0.049 0.02625,0.041 0.015,0.086 -0.0075,0.041 -0.04875,0.068 -0.03,0.023 -0.06375,0.045 -0.03,0.019 -0.06375,0.041 -0.1425,0.094 -0.2775,0.18 -0.135,0.086 -0.255,0.15 -0.24375,0.1275 -0.38625,0.1275 z"
           id="path4337"
           style="" />
      </g>
      <g
         style="font-style:normal;font-variant:normal;font-weight:normal;font-stretch:normal;font-size:3.75px;line-height:125%;font-family:'Redacted Script';-inkscape-font-specification:'Redacted Script';text-align:start;letter-spacing:0px;word-spacing:0px;text-anchor:start;fill:#333333;fill-opacity:1;stroke:none;stroke-width:1px;stroke-linecap:butt;stroke-linejoin:miter;stroke-opacity:1"
         id="text4296">
        <path
           d="m 13.414,1033.4672 q -0.03,0 -0.05625,-0 -0.0225,-0 -0.04875,-0.011 -0.0675,-0.019 -0.09375,-0.079 -0.03375,-0.075 0,-0.18 0.0375,-0.1087 0.12,-0.2775 0.015,-0.03 0.03,-0.067 0.015,-0.038 0.03375,-0.071 -0.04875,0.019 -0.105,0.064 -0.0525,0.041 -0.10875,0.086 -0.0375,0.03 -0.0825,0.022 -0.04875,-0.01 -0.07875,-0.041 -0.03,-0.038 -0.0225,-0.082 0.0075,-0.045 0.04125,-0.079 0.0525,-0.037 0.10875,-0.082 0.05625,-0.045 0.12,-0.075 0.15375,-0.079 0.28125,-0.041 0.06,0.011 0.09,0.075 0.03,0.064 -0.0038,0.15 -0.03,0.086 -0.105,0.2438 -0.01875,0.045 -0.04125,0.09 -0.01875,0.045 -0.0375,0.086 -0.0075,0.015 -0.01125,0.026 -0.0038,0.011 -0.0075,0.022 0.0375,-0 0.09375,-0.022 0.06,-0.019 0.135,-0.056 0.07875,-0.041 0.18,-0.1087 0.10125,-0.067 0.2325,-0.1688 0.10125,-0.082 0.19125,-0.1612 0.09,-0.079 0.1575,-0.1425 0.0675,-0.064 0.10875,-0.105 0.04125,-0.041 0.04125,-0.041 0.045,-0.053 0.10875,-0.034 0.03,0.01 0.04875,0.026 0.01875,0.019 0.03,0.037 0.02625,0.053 0.0038,0.1238 -0.0225,0.071 -0.0825,0.2212 -0.0225,0.049 -0.045,0.098 -0.01875,0.049 -0.0375,0.09 -0.0038,0.019 -0.01125,0.041 0.0525,-0.01 0.1125,-0.041 0.06,-0.034 0.12,-0.075 0.06,-0.041 0.1125,-0.086 0.0525,-0.049 0.09375,-0.082 0.0375,-0.034 0.0825,-0.03 0.045,0 0.07875,0.037 0.03,0.038 0.02625,0.083 0,0.045 -0.0375,0.079 -0.08625,0.079 -0.17625,0.15 -0.09,0.068 -0.18375,0.12 -0.09,0.049 -0.18375,0.071 -0.09375,0.019 -0.18375,-0 -0.06,-0.023 -0.08625,-0.075 -0.0225,-0.053 -0.015,-0.1125 0.01125,-0.064 0.045,-0.1612 -0.04125,0.037 -0.08625,0.071 -0.04125,0.034 -0.09,0.075 -0.5175,0.4088 -0.80625,0.4088 z"
           id="path4310"
           style="" />
        <path
           d="m 15.961188,1033.2534 q -0.045,0 -0.075,-0.026 -0.06,-0.049 -0.03375,-0.1238 0,-0 0.02625,-0.09 0.03,-0.086 0.0675,-0.195 0.01875,-0.064 0.03375,-0.1087 0.015,-0.049 0.02625,-0.086 -0.07875,0.03 -0.18,0.068 -0.10125,0.037 -0.2175,0.082 -0.1125,0.041 -0.2325,0.086 -0.12,0.045 -0.2325,0.086 -0.04125,0.015 -0.0825,-0 -0.045,-0.023 -0.06375,-0.067 -0.015,-0.041 0.0075,-0.082 0.01875,-0.045 0.06375,-0.064 0.16875,-0.06 0.34875,-0.1275 0.18375,-0.067 0.33375,-0.1237 0.15,-0.056 0.2475,-0.094 0.10125,-0.037 0.10125,-0.037 0.01875,-0 0.03375,-0 0.01875,-0 0.0375,0 0.0525,0.01 0.075,0.06 0.01875,0.03 0.015,0.079 0,0.045 -0.01875,0.1312 -0.01125,0.049 -0.03,0.1088 -0.015,0.056 -0.04125,0.1312 -0.0038,0.015 -0.0075,0.026 -0.0038,0.011 -0.0075,0.026 0.15,-0.082 0.3675,-0.1725 0.04125,-0.019 0.0825,0 0.04125,0.015 0.06,0.056 0.0225,0.041 0.0038,0.086 -0.01875,0.045 -0.06,0.064 -0.1275,0.056 -0.23625,0.1087 -0.10875,0.053 -0.1875,0.094 -0.09375,0.049 -0.16875,0.09 -0.0225,0.019 -0.05625,0.019 z"
           id="path4312"
           style="" />
        <path
           d="m 16.863707,1033.4672 q -0.03,0 -0.05625,-0 -0.0225,-0 -0.04875,-0.011 -0.0675,-0.019 -0.09375,-0.079 -0.03375,-0.075 0,-0.18 0.0375,-0.1087 0.12,-0.2775 0.015,-0.03 0.03,-0.067 0.015,-0.038 0.03375,-0.071 -0.04875,0.019 -0.105,0.064 -0.0525,0.041 -0.10875,0.086 -0.0375,0.03 -0.0825,0.022 -0.04875,-0.01 -0.07875,-0.041 -0.03,-0.038 -0.0225,-0.082 0.0075,-0.045 0.04125,-0.079 0.0525,-0.037 0.10875,-0.082 0.05625,-0.045 0.12,-0.075 0.15375,-0.079 0.28125,-0.041 0.06,0.011 0.09,0.075 0.03,0.064 -0.0038,0.15 -0.03,0.086 -0.105,0.2438 -0.01875,0.045 -0.04125,0.09 -0.01875,0.045 -0.0375,0.086 -0.0075,0.015 -0.01125,0.026 -0.0038,0.011 -0.0075,0.022 0.0375,-0 0.09375,-0.022 0.06,-0.019 0.135,-0.056 0.07875,-0.041 0.18,-0.1087 0.10125,-0.067 0.2325,-0.1688 0.10125,-0.082 0.19125,-0.1612 0.09,-0.079 0.1575,-0.1425 0.0675,-0.064 0.10875,-0.105 0.04125,-0.041 0.04125,-0.041 0.045,-0.053 0.10875,-0.034 0.03,0.01 0.04875,0.026 0.01875,0.019 0.03,0.037 0.02625,0.053 0.0038,0.1238 -0.0225,0.071 -0.0825,0.2212 -0.0225,0.049 -0.045,0.098 -0.01875,0.049 -0.0375,0.09 -0.0038,0.019 -0.01125,0.041 0.0525,-0.01 0.1125,-0.041 0.06,-0.034 0.12,-0.075 0.06,-0.041 0.1125,-0.086 0.0525,-0.049 0.09375,-0.082 0.0375,-0.034 0.0825,-0.03 0.045,0 0.07875,0.037 0.03,0.038 0.02625,0.083 0,0.045 -0.0375,0.079 -0.08625,0.079 -0.17625,0.15 -0.09,0.068 -0.18375,0.12 -0.09,0.049 -0.18375,0.071 -0.09375,0.019 -0.18375,-0 -0.06,-0.023 -0.08625,-0.075 -0.0225,-0.053 -0.015,-0.1125 0.01125,-0.064 0.045,-0.1612 -0.04125,0.037 -0.08625,0.071 -0.04125,0.034 -0.09,0.075 -0.5175,0.4088 -0.80625,0.4088 z"
           id="path4314"
           style="" />
        <path
           d="m 18.855895,1033.4672 q -0.03,0 -0.05625,-0 -0.0225,-0 -0.04875,-0.011 -0.0675,-0.019 -0.09375,-0.079 -0.03375,-0.075 0,-0.18 0.0375,-0.1087 0.12,-0.2775 0.015,-0.03 0.03,-0.067 0.015,-0.038 0.03375,-0.071 -0.04875,0.019 -0.105,0.064 -0.0525,0.041 -0.10875,0.086 -0.0375,0.03 -0.0825,0.022 -0.04875,-0.01 -0.07875,-0.041 -0.03,-0.038 -0.0225,-0.082 0.0075,-0.045 0.04125,-0.079 0.0525,-0.037 0.10875,-0.082 0.05625,-0.045 0.12,-0.075 0.15375,-0.079 0.28125,-0.041 0.06,0.011 0.09,0.075 0.03,0.064 -0.0037,0.15 -0.03,0.086 -0.105,0.2438 -0.01875,0.045 -0.04125,0.09 -0.01875,0.045 -0.0375,0.086 -0.0075,0.015 -0.01125,0.026 -0.0038,0.011 -0.0075,0.022 0.0375,-0 0.09375,-0.022 0.06,-0.019 0.135,-0.056 0.07875,-0.041 0.18,-0.1087 0.10125,-0.067 0.2325,-0.1688 0.10125,-0.082 0.19125,-0.1612 0.09,-0.079 0.1575,-0.1425 0.0675,-0.064 0.10875,-0.105 0.04125,-0.041 0.04125,-0.041 0.045,-0.053 0.10875,-0.034 0.03,0.01 0.04875,0.026 0.01875,0.019 0.03,0.037 0.02625,0.053 0.0037,0.1238 -0.0225,0.071 -0.0825,0.2212 -0.0225,0.049 -0.045,0.098 -0.01875,0.049 -0.0375,0.09 -0.0038,0.019 -0.01125,0.041 0.0525,-0.01 0.1125,-0.041 0.06,-0.034 0.12,-0.075 0.06,-0.041 0.1125,-0.086 0.0525,-0.049 0.09375,-0.082 0.0375,-0.034 0.0825,-0.03 0.045,0 0.07875,0.037 0.03,0.038 0.02625,0.083 0,0.045 -0.0375,0.079 -0.08625,0.079 -0.17625,0.15 -0.09,0.068 -0.18375,0.12 -0.09,0.049 -0.18375,0.071 -0.09375,0.019 -0.18375,-0 -0.06,-0.023 -0.08625,-0.075 -0.0225,-0.053 -0.015,-0.1125 0.01125,-0.064 0.045,-0.1612 -0.04125,0.037 -0.08625,0.071 -0.04125,0.034 -0.09,0.075 -0.5175,0.4088 -0.80625,0.4088 z"
           id="path4316"
           style="" />
        <path
           d="m 20.848082,1033.4672 q -0.03,0 -0.05625,-0 -0.0225,-0 -0.04875,-0.011 -0.0675,-0.019 -0.09375,-0.079 -0.03375,-0.075 0,-0.18 0.0375,-0.1087 0.12,-0.2775 0.015,-0.03 0.03,-0.067 0.015,-0.038 0.03375,-0.071 -0.04875,0.019 -0.105,0.064 -0.0525,0.041 -0.10875,0.086 -0.0375,0.03 -0.0825,0.022 -0.04875,-0.01 -0.07875,-0.041 -0.03,-0.038 -0.0225,-0.082 0.0075,-0.045 0.04125,-0.079 0.0525,-0.037 0.10875,-0.082 0.05625,-0.045 0.12,-0.075 0.15375,-0.079 0.28125,-0.041 0.06,0.011 0.09,0.075 0.03,0.064 -0.0038,0.15 -0.03,0.086 -0.105,0.2438 -0.01875,0.045 -0.04125,0.09 -0.01875,0.045 -0.0375,0.086 -0.0075,0.015 -0.01125,0.026 -0.0038,0.011 -0.0075,0.022 0.0375,-0 0.09375,-0.022 0.06,-0.019 0.135,-0.056 0.07875,-0.041 0.18,-0.1087 0.10125,-0.067 0.2325,-0.1688 0.10125,-0.082 0.19125,-0.1612 0.09,-0.079 0.1575,-0.1425 0.0675,-0.064 0.10875,-0.105 0.04125,-0.041 0.04125,-0.041 0.045,-0.053 0.10875,-0.034 0.03,0.01 0.04875,0.026 0.01875,0.019 0.03,0.037 0.02625,0.053 0.0038,0.1238 -0.0225,0.071 -0.0825,0.2212 -0.0225,0.049 -0.045,0.098 -0.01875,0.049 -0.0375,0.09 -0.0038,0.019 -0.01125,0.041 0.0525,-0.01 0.1125,-0.041 0.06,-0.034 0.12,-0.075 0.06,-0.041 0.1125,-0.086 0.0525,-0.049 0.09375,-0.082 0.0375,-0.034 0.0825,-0.03 0.045,0 0.07875,0.037 0.03,0.038 0.02625,0.083 0,0.045 -0.0375,0.079 -0.08625,0.079 -0.17625,0.15 -0.09,0.068 -0.18375,0.12 -0.09,0.049 -0.18375,0.071 -0.09375,0.019 -0.18375,-0 -0.06,-0.023 -0.08625,-0.075 -0.0225,-0.053 -0.015,-0.1125 0.01125,-0.064 0.045,-0.1612 -0.04125,0.037 -0.08625,0.071 -0.04125,0.034 -0.09,0.075 -0.5175,0.4088 -0.80625,0.4088 z"
           id="path4318"
           style="" />
        <path
           d="m 24.664,1033.4672 q -0.03,0 -0.05625,-0 -0.0225,-0 -0.04875,-0.011 -0.0675,-0.019 -0.09375,-0.079 -0.03375,-0.075 0,-0.18 0.0375,-0.1087 0.12,-0.2775 0.015,-0.03 0.03,-0.067 0.015,-0.038 0.03375,-0.071 -0.04875,0.019 -0.105,0.064 -0.0525,0.041 -0.10875,0.086 -0.0375,0.03 -0.0825,0.022 -0.04875,-0.01 -0.07875,-0.041 -0.03,-0.038 -0.0225,-0.082 0.0075,-0.045 0.04125,-0.079 0.0525,-0.037 0.10875,-0.082 0.05625,-0.045 0.12,-0.075 0.15375,-0.079 0.28125,-0.041 0.06,0.011 0.09,0.075 0.03,0.064 -0.0038,0.15 -0.03,0.086 -0.105,0.2438 -0.01875,0.045 -0.04125,0.09 -0.01875,0.045 -0.0375,0.086 -0.0075,0.015 -0.01125,0.026 -0.0038,0.011 -0.0075,0.022 0.0375,-0 0.09375,-0.022 0.06,-0.019 0.135,-0.056 0.07875,-0.041 0.18,-0.1087 0.10125,-0.067 0.2325,-0.1688 0.10125,-0.082 0.19125,-0.1612 0.09,-0.079 0.1575,-0.1425 0.0675,-0.064 0.10875,-0.105 0.04125,-0.041 0.04125,-0.041 0.045,-0.053 0.10875,-0.034 0.03,0.01 0.04875,0.026 0.01875,0.019 0.03,0.037 0.02625,0.053 0.0038,0.1238 -0.0225,0.071 -0.0825,0.2212 -0.0225,0.049 -0.045,0.098 -0.01875,0.049 -0.0375,0.09 -0.0038,0.019 -0.01125,0.041 0.0525,-0.01 0.1125,-0.041 0.06,-0.034 0.12,-0.075 0.06,-0.041 0.1125,-0.086 0.0525,-0.049 0.09375,-0.082 0.0375,-0.034 0.0825,-0.03 0.045,0 0.07875,0.037 0.03,0.038 0.02625,0.083 0,0.045 -0.0375,0.079 -0.08625,0.079 -0.17625,0.15 -0.09,0.068 -0.18375,0.12 -0.09,0.049 -0.18375,0.071 -0.09375,0.019 -0.18375,-0 -0.06,-0.023 -0.08625,-0.075 -0.0225,-0.053 -0.015,-0.1125 0.01125,-0.064 0.045,-0.1612 -0.04125,0.037 -0.08625,0.071 -0.04125,0.034 -0.09,0.075 -0.5175,0.4088 -0.80625,0.4088 z"
           id="path4320"
           style="" />
        <path
           d="m 26.828688,1033.4747 q -0.01875,0 -0.0375,-0 -0.01875,0 -0.04125,-0 -0.045,-0.015 -0.075,-0.064 -0.01125,-0.022 -0.015,-0.053 -0.0038,-0.034 0.0075,-0.097 0.015,-0.064 0.045,-0.1725 0.03375,-0.1125 0.09,-0.2887 -0.08625,0.03 -0.19125,0.071 -0.105,0.041 -0.2175,0.082 -0.04125,0.015 -0.0825,-0 -0.045,-0.023 -0.06375,-0.067 -0.015,-0.041 0.0075,-0.082 0.01875,-0.045 0.06375,-0.064 0.12,-0.045 0.2325,-0.086 0.1125,-0.041 0.19875,-0.071 0.08625,-0.034 0.13875,-0.053 0.0525,-0.023 0.0525,-0.023 0.0375,-0.015 0.07125,-0 0.04875,0.011 0.07125,0.056 0.01875,0.034 0.01125,0.06 -0.0038,0.026 -0.01125,0.056 -0.0075,0.015 -0.01125,0.034 -0.0037,0.015 -0.01125,0.037 -0.02625,0.064 -0.05625,0.1575 -0.02625,0.09 -0.05625,0.1838 -0.01875,0.053 -0.03,0.09 -0.01125,0.037 -0.01875,0.067 0.07125,-0.015 0.20625,-0.086 0.11625,-0.064 0.2475,-0.1462 0.13125,-0.082 0.27375,-0.18 0.03,-0.019 0.06,-0.038 0.03,-0.019 0.06,-0.041 0.04125,-0.026 0.08625,-0.015 0.045,0.01 0.075,0.049 0.02625,0.041 0.015,0.086 -0.0075,0.041 -0.04875,0.068 -0.03,0.023 -0.06375,0.045 -0.03,0.019 -0.06375,0.041 -0.1425,0.094 -0.2775,0.18 -0.135,0.086 -0.255,0.15 -0.24375,0.1275 -0.38625,0.1275 z"
           id="path4322"
           style="" />
      </g>
      <g
         style="font-style:normal;font-variant:normal;font-weight:normal;font-stretch:normal;font-size:3.75px;line-height:125%;font-family:'Redacted Script';-inkscape-font-specification:'Redacted Script';text-align:start;letter-spacing:0px;word-spacing:0px;text-anchor:start;fill:#ffffff;fill-opacity:1;stroke:none;stroke-width:1px;stroke-linecap:butt;stroke-linejoin:miter;stroke-opacity:1"
         id="text4328">
        <path
           d="m 13.3,1027.4672 q -0.03,0 -0.05625,-0 -0.0225,-0 -0.04875,-0.011 -0.0675,-0.019 -0.09375,-0.079 -0.03375,-0.075 0,-0.18 0.0375,-0.1087 0.12,-0.2775 0.015,-0.03 0.03,-0.067 0.015,-0.038 0.03375,-0.071 -0.04875,0.019 -0.105,0.064 -0.0525,0.041 -0.10875,0.086 -0.0375,0.03 -0.0825,0.022 -0.04875,-0.01 -0.07875,-0.041 -0.03,-0.038 -0.0225,-0.082 0.0075,-0.045 0.04125,-0.079 0.0525,-0.037 0.10875,-0.082 0.05625,-0.045 0.12,-0.075 0.15375,-0.079 0.28125,-0.041 0.06,0.011 0.09,0.075 0.03,0.064 -0.0038,0.15 -0.03,0.086 -0.105,0.2438 -0.01875,0.045 -0.04125,0.09 -0.01875,0.045 -0.0375,0.086 -0.0075,0.015 -0.01125,0.026 -0.0038,0.011 -0.0075,0.022 0.0375,-0 0.09375,-0.022 0.06,-0.019 0.135,-0.056 0.07875,-0.041 0.18,-0.1087 0.10125,-0.067 0.2325,-0.1688 0.10125,-0.082 0.19125,-0.1612 0.09,-0.079 0.1575,-0.1425 0.0675,-0.064 0.10875,-0.105 0.04125,-0.041 0.04125,-0.041 0.045,-0.053 0.10875,-0.034 0.03,0.01 0.04875,0.026 0.01875,0.019 0.03,0.037 0.02625,0.053 0.0038,0.1238 -0.0225,0.071 -0.0825,0.2212 -0.0225,0.049 -0.045,0.098 -0.01875,0.049 -0.0375,0.09 -0.0038,0.019 -0.01125,0.041 0.0525,-0.01 0.1125,-0.041 0.06,-0.034 0.12,-0.075 0.06,-0.041 0.1125,-0.086 0.0525,-0.049 0.09375,-0.082 0.0375,-0.034 0.0825,-0.03 0.045,0 0.07875,0.037 0.03,0.038 0.02625,0.083 0,0.045 -0.0375,0.079 -0.08625,0.079 -0.17625,0.15 -0.09,0.068 -0.18375,0.12 -0.09,0.049 -0.18375,0.071 -0.09375,0.019 -0.18375,-0 -0.06,-0.023 -0.08625,-0.075 -0.0225,-0.053 -0.015,-0.1125 0.01125,-0.064 0.045,-0.1612 -0.04125,0.037 -0.08625,0.071 -0.04125,0.034 -0.09,0.075 -0.5175,0.4088 -0.80625,0.4088 z"
           id="path4297"
           style="" />
        <path
           d="m 15.490937,1027.1409 q -0.01875,0 -0.03,-0 -0.06,-0.015 -0.08625,-0.045 -0.0225,-0.034 -0.03,-0.053 -0.03,-0.082 0.015,-0.1688 0.04875,-0.09 0.12,-0.1875 0.0225,-0.03 0.04125,-0.064 0.01875,-0.034 0.0375,-0.064 0.0038,-0 0.01125,-0.015 -0.0225,0.01 -0.05625,0.023 -0.03,0.015 -0.07125,0.045 -0.0675,0.041 -0.1425,0.1088 -0.075,0.064 -0.153749,0.135 -0.01875,0.019 -0.04125,0.037 -0.01875,0.015 -0.0375,0.034 -0.03375,0.03 -0.07875,0.03 -0.04875,-0 -0.07875,-0.041 -0.03375,-0.034 -0.03,-0.079 0.0038,-0.049 0.0375,-0.079 0.01875,-0.019 0.04125,-0.034 0.01875,-0.019 0.0375,-0.038 0.09,-0.082 0.17625,-0.1537 0.09,-0.075 0.172499,-0.1275 0.08625,-0.053 0.168751,-0.075 0.08625,-0.026 0.164999,-0 0.06375,0.019 0.09,0.053 0.02625,0.034 0.03375,0.06 0.03375,0.086 -0.015,0.1763 -0.04875,0.09 -0.12375,0.1987 -0.0075,0.01 -0.01875,0.026 -0.0075,0.015 -0.01875,0.03 0.05625,-0.022 0.142501,-0.053 0.09,-0.034 0.22125,-0.086 0.04875,-0.015 0.09,0.01 0.04125,0.019 0.05625,0.064 0.01875,0.041 -0.0038,0.086 -0.01875,0.041 -0.06,0.06 -0.119999,0.041 -0.217499,0.075 -0.0975,0.034 -0.165,0.06 -0.0375,0.015 -0.0675,0.026 -0.02625,0.01 -0.04875,0.015 -0.03,0.01 -0.04875,0.015 -0.015,0 -0.03375,0 z"
           id="path4299"
           style="" />
        <path
           d="m 16.324902,1027.4672 q -0.03,0 -0.05625,-0 -0.0225,-0 -0.04875,-0.011 -0.0675,-0.019 -0.09375,-0.079 -0.03375,-0.075 0,-0.18 0.0375,-0.1087 0.12,-0.2775 0.015,-0.03 0.03,-0.067 0.015,-0.038 0.03375,-0.071 -0.04875,0.019 -0.105,0.064 -0.0525,0.041 -0.10875,0.086 -0.0375,0.03 -0.0825,0.022 -0.04875,-0.01 -0.07875,-0.041 -0.03,-0.038 -0.0225,-0.082 0.0075,-0.045 0.04125,-0.079 0.0525,-0.037 0.10875,-0.082 0.05625,-0.045 0.12,-0.075 0.15375,-0.079 0.28125,-0.041 0.06,0.011 0.09,0.075 0.03,0.064 -0.0038,0.15 -0.03,0.086 -0.105,0.2438 -0.01875,0.045 -0.04125,0.09 -0.01875,0.045 -0.0375,0.086 -0.0075,0.015 -0.01125,0.026 -0.0038,0.011 -0.0075,0.022 0.0375,-0 0.09375,-0.022 0.06,-0.019 0.135,-0.056 0.07875,-0.041 0.18,-0.1087 0.10125,-0.067 0.2325,-0.1688 0.10125,-0.082 0.19125,-0.1612 0.09,-0.079 0.1575,-0.1425 0.0675,-0.064 0.10875,-0.105 0.04125,-0.041 0.04125,-0.041 0.045,-0.053 0.10875,-0.034 0.03,0.01 0.04875,0.026 0.01875,0.019 0.03,0.037 0.02625,0.053 0.0038,0.1238 -0.0225,0.071 -0.0825,0.2212 -0.0225,0.049 -0.045,0.098 -0.01875,0.049 -0.0375,0.09 -0.0038,0.019 -0.01125,0.041 0.0525,-0.01 0.1125,-0.041 0.06,-0.034 0.12,-0.075 0.06,-0.041 0.1125,-0.086 0.0525,-0.049 0.09375,-0.082 0.0375,-0.034 0.0825,-0.03 0.045,0 0.07875,0.037 0.03,0.038 0.02625,0.083 0,0.045 -0.0375,0.079 -0.08625,0.079 -0.17625,0.15 -0.09,0.068 -0.18375,0.12 -0.09,0.049 -0.18375,0.071 -0.09375,0.019 -0.18375,-0 -0.06,-0.023 -0.08625,-0.075 -0.0225,-0.053 -0.015,-0.1125 0.01125,-0.064 0.045,-0.1612 -0.04125,0.037 -0.08625,0.071 -0.04125,0.034 -0.09,0.075 -0.5175,0.4088 -0.80625,0.4088 z"
           id="path4301"
           style="" />
        <path
           d="m 18.87209,1027.2534 q -0.045,0 -0.075,-0.026 -0.06,-0.049 -0.03375,-0.1238 0,-0 0.02625,-0.09 0.03,-0.086 0.0675,-0.195 0.01875,-0.064 0.03375,-0.1087 0.015,-0.049 0.02625,-0.086 -0.07875,0.03 -0.18,0.068 -0.10125,0.037 -0.2175,0.082 -0.1125,0.041 -0.2325,0.086 -0.12,0.045 -0.2325,0.086 -0.04125,0.015 -0.0825,-0 -0.045,-0.023 -0.06375,-0.067 -0.015,-0.041 0.0075,-0.082 0.01875,-0.045 0.06375,-0.064 0.16875,-0.06 0.34875,-0.1275 0.18375,-0.067 0.33375,-0.1237 0.15,-0.056 0.2475,-0.094 0.10125,-0.037 0.10125,-0.037 0.01875,-0 0.03375,-0 0.01875,-0 0.0375,0 0.0525,0.01 0.075,0.06 0.01875,0.03 0.015,0.079 0,0.045 -0.01875,0.1312 -0.01125,0.049 -0.03,0.1088 -0.015,0.056 -0.04125,0.1312 -0.0038,0.015 -0.0075,0.026 -0.0038,0.011 -0.0075,0.026 0.15,-0.082 0.3675,-0.1725 0.04125,-0.019 0.0825,0 0.04125,0.015 0.06,0.056 0.0225,0.041 0.0038,0.086 -0.01875,0.045 -0.06,0.064 -0.1275,0.056 -0.23625,0.1087 -0.10875,0.053 -0.1875,0.094 -0.09375,0.049 -0.16875,0.09 -0.0225,0.019 -0.05625,0.019 z"
           id="path4303"
           style="" />
        <path
           d="m 19.774609,1027.4672 q -0.03,0 -0.05625,-0 -0.0225,-0 -0.04875,-0.011 -0.0675,-0.019 -0.09375,-0.079 -0.03375,-0.075 0,-0.18 0.0375,-0.1087 0.12,-0.2775 0.015,-0.03 0.03,-0.067 0.015,-0.038 0.03375,-0.071 -0.04875,0.019 -0.105,0.064 -0.0525,0.041 -0.10875,0.086 -0.0375,0.03 -0.0825,0.022 -0.04875,-0.01 -0.07875,-0.041 -0.03,-0.038 -0.0225,-0.082 0.0075,-0.045 0.04125,-0.079 0.0525,-0.037 0.10875,-0.082 0.05625,-0.045 0.12,-0.075 0.15375,-0.079 0.28125,-0.041 0.06,0.011 0.09,0.075 0.03,0.064 -0.0038,0.15 -0.03,0.086 -0.105,0.2438 -0.01875,0.045 -0.04125,0.09 -0.01875,0.045 -0.0375,0.086 -0.0075,0.015 -0.01125,0.026 -0.0038,0.011 -0.0075,0.022 0.0375,-0 0.09375,-0.022 0.06,-0.019 0.135,-0.056 0.07875,-0.041 0.18,-0.1087 0.10125,-0.067 0.2325,-0.1688 0.10125,-0.082 0.19125,-0.1612 0.09,-0.079 0.1575,-0.1425 0.0675,-0.064 0.10875,-0.105 0.04125,-0.041 0.04125,-0.041 0.045,-0.053 0.10875,-0.034 0.03,0.01 0.04875,0.026 0.01875,0.019 0.03,0.037 0.02625,0.053 0.0038,0.1238 -0.0225,0.071 -0.0825,0.2212 -0.0225,0.049 -0.045,0.098 -0.01875,0.049 -0.0375,0.09 -0.0038,0.019 -0.01125,0.041 0.0525,-0.01 0.1125,-0.041 0.06,-0.034 0.12,-0.075 0.06,-0.041 0.1125,-0.086 0.0525,-0.049 0.09375,-0.082 0.0375,-0.034 0.0825,-0.03 0.045,0 0.07875,0.037 0.03,0.038 0.02625,0.083 0,0.045 -0.0375,0.079 -0.08625,0.079 -0.17625,0.15 -0.09,0.068 -0.18375,0.12 -0.09,0.049 -0.18375,0.071 -0.09375,0.019 -0.18375,-0 -0.06,-0.023 -0.08625,-0.075 -0.0225,-0.053 -0.015,-0.1125 0.01125,-0.064 0.045,-0.1612 -0.04125,0.037 -0.08625,0.071 -0.04125,0.034 -0.09,0.075 -0.5175,0.4088 -0.80625,0.4088 z"
           id="path4305"
           style="" />
        <path
           d="m 21.766797,1027.4672 q -0.03,0 -0.05625,-0 -0.0225,-0 -0.04875,-0.011 -0.0675,-0.019 -0.09375,-0.079 -0.03375,-0.075 0,-0.18 0.0375,-0.1087 0.12,-0.2775 0.015,-0.03 0.03,-0.067 0.015,-0.038 0.03375,-0.071 -0.04875,0.019 -0.105,0.064 -0.0525,0.041 -0.10875,0.086 -0.0375,0.03 -0.0825,0.022 -0.04875,-0.01 -0.07875,-0.041 -0.03,-0.038 -0.0225,-0.082 0.0075,-0.045 0.04125,-0.079 0.0525,-0.037 0.10875,-0.082 0.05625,-0.045 0.12,-0.075 0.15375,-0.079 0.28125,-0.041 0.06,0.011 0.09,0.075 0.03,0.064 -0.0038,0.15 -0.03,0.086 -0.105,0.2438 -0.01875,0.045 -0.04125,0.09 -0.01875,0.045 -0.0375,0.086 -0.0075,0.015 -0.01125,0.026 -0.0038,0.011 -0.0075,0.022 0.0375,-0 0.09375,-0.022 0.06,-0.019 0.135,-0.056 0.07875,-0.041 0.18,-0.1087 0.10125,-0.067 0.2325,-0.1688 0.10125,-0.082 0.19125,-0.1612 0.09,-0.079 0.1575,-0.1425 0.0675,-0.064 0.10875,-0.105 0.04125,-0.041 0.04125,-0.041 0.045,-0.053 0.10875,-0.034 0.03,0.01 0.04875,0.026 0.01875,0.019 0.03,0.037 0.02625,0.053 0.0038,0.1238 -0.0225,0.071 -0.0825,0.2212 -0.0225,0.049 -0.045,0.098 -0.01875,0.049 -0.0375,0.09 -0.0038,0.019 -0.01125,0.041 0.0525,-0.01 0.1125,-0.041 0.06,-0.034 0.12,-0.075 0.06,-0.041 0.1125,-0.086 0.0525,-0.049 0.09375,-0.082 0.0375,-0.034 0.0825,-0.03 0.045,0 0.07875,0.037 0.03,0.038 0.02625,0.083 0,0.045 -0.0375,0.079 -0.08625,0.079 -0.17625,0.15 -0.09,0.068 -0.18375,0.12 -0.09,0.049 -0.18375,0.071 -0.09375,0.019 -0.18375,-0 -0.06,-0.023 -0.08625,-0.075 -0.0225,-0.053 -0.015,-0.1125 0.01125,-0.064 0.045,-0.1612 -0.04125,0.037 -0.08625,0.071 -0.04125,0.034 -0.09,0.075 -0.5175,0.4088 -0.80625,0.4088 z"
           id="path4307"
           style="" />
      </g>
      <g
         style="font-style:normal;font-variant:normal;font-weight:normal;font-stretch:normal;font-size:3.75px;line-height:125%;font-family:'Redacted Script';-inkscape-font-specification:'Redacted Script';text-align:start;letter-spacing:0px;word-spacing:0px;text-anchor:start;fill:#333333;fill-opacity:1;stroke:none;stroke-width:1px;stroke-linecap:butt;stroke-linejoin:miter;stroke-opacity:1"
         id="text4268">
        <path
           d="m 13.3,1026.4672 q -0.03,0 -0.05625,-0 -0.0225,-0 -0.04875,-0.011 -0.0675,-0.019 -0.09375,-0.079 -0.03375,-0.075 0,-0.18 0.0375,-0.1087 0.12,-0.2775 0.015,-0.03 0.03,-0.067 0.015,-0.038 0.03375,-0.071 -0.04875,0.019 -0.105,0.064 -0.0525,0.041 -0.10875,0.086 -0.0375,0.03 -0.0825,0.022 -0.04875,-0.01 -0.07875,-0.041 -0.03,-0.038 -0.0225,-0.082 0.0075,-0.045 0.04125,-0.079 0.0525,-0.037 0.10875,-0.082 0.05625,-0.045 0.12,-0.075 0.15375,-0.079 0.28125,-0.041 0.06,0.011 0.09,0.075 0.03,0.064 -0.0038,0.15 -0.03,0.086 -0.105,0.2438 -0.01875,0.045 -0.04125,0.09 -0.01875,0.045 -0.0375,0.086 -0.0075,0.015 -0.01125,0.026 -0.0038,0.011 -0.0075,0.022 0.0375,-0 0.09375,-0.022 0.06,-0.019 0.135,-0.056 0.07875,-0.041 0.18,-0.1087 0.10125,-0.067 0.2325,-0.1688 0.10125,-0.082 0.19125,-0.1612 0.09,-0.079 0.1575,-0.1425 0.0675,-0.064 0.10875,-0.105 0.04125,-0.041 0.04125,-0.041 0.045,-0.053 0.10875,-0.034 0.03,0.01 0.04875,0.026 0.01875,0.019 0.03,0.037 0.02625,0.053 0.0038,0.1238 -0.0225,0.071 -0.0825,0.2212 -0.0225,0.049 -0.045,0.098 -0.01875,0.049 -0.0375,0.09 -0.0038,0.019 -0.01125,0.041 0.0525,-0.01 0.1125,-0.041 0.06,-0.034 0.12,-0.075 0.06,-0.041 0.1125,-0.086 0.0525,-0.049 0.09375,-0.082 0.0375,-0.034 0.0825,-0.03 0.045,0 0.07875,0.037 0.03,0.038 0.02625,0.083 0,0.045 -0.0375,0.079 -0.08625,0.079 -0.17625,0.15 -0.09,0.068 -0.18375,0.12 -0.09,0.049 -0.18375,0.071 -0.09375,0.019 -0.18375,-0 -0.06,-0.023 -0.08625,-0.075 -0.0225,-0.053 -0.015,-0.1125 0.01125,-0.064 0.045,-0.1612 -0.04125,0.037 -0.08625,0.071 -0.04125,0.034 -0.09,0.075 -0.5175,0.4088 -0.80625,0.4088 z"
           id="path4284"
           style="" />
        <path
           d="m 15.490937,1026.1409 q -0.01875,0 -0.03,-0 -0.06,-0.015 -0.08625,-0.045 -0.0225,-0.034 -0.03,-0.053 -0.03,-0.082 0.015,-0.1688 0.04875,-0.09 0.12,-0.1875 0.0225,-0.03 0.04125,-0.064 0.01875,-0.034 0.0375,-0.064 0.0038,-0 0.01125,-0.015 -0.0225,0.01 -0.05625,0.023 -0.03,0.015 -0.07125,0.045 -0.0675,0.041 -0.1425,0.1088 -0.075,0.064 -0.153749,0.135 -0.01875,0.019 -0.04125,0.037 -0.01875,0.015 -0.0375,0.034 -0.03375,0.03 -0.07875,0.03 -0.04875,-0 -0.07875,-0.041 -0.03375,-0.034 -0.03,-0.079 0.0038,-0.049 0.0375,-0.079 0.01875,-0.019 0.04125,-0.034 0.01875,-0.019 0.0375,-0.038 0.09,-0.082 0.17625,-0.1537 0.09,-0.075 0.172499,-0.1275 0.08625,-0.053 0.168751,-0.075 0.08625,-0.026 0.164999,-0 0.06375,0.019 0.09,0.053 0.02625,0.034 0.03375,0.06 0.03375,0.086 -0.015,0.1763 -0.04875,0.09 -0.12375,0.1987 -0.0075,0.01 -0.01875,0.026 -0.0075,0.015 -0.01875,0.03 0.05625,-0.022 0.142501,-0.053 0.09,-0.034 0.22125,-0.086 0.04875,-0.015 0.09,0.01 0.04125,0.019 0.05625,0.064 0.01875,0.041 -0.0038,0.086 -0.01875,0.041 -0.06,0.06 -0.119999,0.041 -0.217499,0.075 -0.0975,0.034 -0.165,0.06 -0.0375,0.015 -0.0675,0.026 -0.02625,0.01 -0.04875,0.015 -0.03,0.01 -0.04875,0.015 -0.015,0 -0.03375,0 z"
           id="path4286"
           style="" />
        <path
           d="m 16.324902,1026.4672 q -0.03,0 -0.05625,-0 -0.0225,-0 -0.04875,-0.011 -0.0675,-0.019 -0.09375,-0.079 -0.03375,-0.075 0,-0.18 0.0375,-0.1087 0.12,-0.2775 0.015,-0.03 0.03,-0.067 0.015,-0.038 0.03375,-0.071 -0.04875,0.019 -0.105,0.064 -0.0525,0.041 -0.10875,0.086 -0.0375,0.03 -0.0825,0.022 -0.04875,-0.01 -0.07875,-0.041 -0.03,-0.038 -0.0225,-0.082 0.0075,-0.045 0.04125,-0.079 0.0525,-0.037 0.10875,-0.082 0.05625,-0.045 0.12,-0.075 0.15375,-0.079 0.28125,-0.041 0.06,0.011 0.09,0.075 0.03,0.064 -0.0038,0.15 -0.03,0.086 -0.105,0.2438 -0.01875,0.045 -0.04125,0.09 -0.01875,0.045 -0.0375,0.086 -0.0075,0.015 -0.01125,0.026 -0.0038,0.011 -0.0075,0.022 0.0375,-0 0.09375,-0.022 0.06,-0.019 0.135,-0.056 0.07875,-0.041 0.18,-0.1087 0.10125,-0.067 0.2325,-0.1688 0.10125,-0.082 0.19125,-0.1612 0.09,-0.079 0.1575,-0.1425 0.0675,-0.064 0.10875,-0.105 0.04125,-0.041 0.04125,-0.041 0.045,-0.053 0.10875,-0.034 0.03,0.01 0.04875,0.026 0.01875,0.019 0.03,0.037 0.02625,0.053 0.0038,0.1238 -0.0225,0.071 -0.0825,0.2212 -0.0225,0.049 -0.045,0.098 -0.01875,0.049 -0.0375,0.09 -0.0038,0.019 -0.01125,0.041 0.0525,-0.01 0.1125,-0.041 0.06,-0.034 0.12,-0.075 0.06,-0.041 0.1125,-0.086 0.0525,-0.049 0.09375,-0.082 0.0375,-0.034 0.0825,-0.03 0.045,0 0.07875,0.037 0.03,0.038 0.02625,0.083 0,0.045 -0.0375,0.079 -0.08625,0.079 -0.17625,0.15 -0.09,0.068 -0.18375,0.12 -0.09,0.049 -0.18375,0.071 -0.09375,0.019 -0.18375,-0 -0.06,-0.023 -0.08625,-0.075 -0.0225,-0.053 -0.015,-0.1125 0.01125,-0.064 0.045,-0.1612 -0.04125,0.037 -0.08625,0.071 -0.04125,0.034 -0.09,0.075 -0.5175,0.4088 -0.80625,0.4088 z"
           id="path4288"
           style="" />
        <path
           d="m 18.87209,1026.2534 q -0.045,0 -0.075,-0.026 -0.06,-0.049 -0.03375,-0.1238 0,-0 0.02625,-0.09 0.03,-0.086 0.0675,-0.195 0.01875,-0.064 0.03375,-0.1087 0.015,-0.049 0.02625,-0.086 -0.07875,0.03 -0.18,0.068 -0.10125,0.037 -0.2175,0.082 -0.1125,0.041 -0.2325,0.086 -0.12,0.045 -0.2325,0.086 -0.04125,0.015 -0.0825,-0 -0.045,-0.023 -0.06375,-0.067 -0.015,-0.041 0.0075,-0.082 0.01875,-0.045 0.06375,-0.064 0.16875,-0.06 0.34875,-0.1275 0.18375,-0.067 0.33375,-0.1237 0.15,-0.056 0.2475,-0.094 0.10125,-0.037 0.10125,-0.037 0.01875,-0 0.03375,-0 0.01875,-0 0.0375,0 0.0525,0.01 0.075,0.06 0.01875,0.03 0.015,0.079 0,0.045 -0.01875,0.1312 -0.01125,0.049 -0.03,0.1088 -0.015,0.056 -0.04125,0.1312 -0.0038,0.015 -0.0075,0.026 -0.0038,0.011 -0.0075,0.026 0.15,-0.082 0.3675,-0.1725 0.04125,-0.019 0.0825,0 0.04125,0.015 0.06,0.056 0.0225,0.041 0.0038,0.086 -0.01875,0.045 -0.06,0.064 -0.1275,0.056 -0.23625,0.1087 -0.10875,0.053 -0.1875,0.094 -0.09375,0.049 -0.16875,0.09 -0.0225,0.019 -0.05625,0.019 z"
           id="path4290"
           style="" />
        <path
           d="m 19.774609,1026.4672 q -0.03,0 -0.05625,-0 -0.0225,-0 -0.04875,-0.011 -0.0675,-0.019 -0.09375,-0.079 -0.03375,-0.075 0,-0.18 0.0375,-0.1087 0.12,-0.2775 0.015,-0.03 0.03,-0.067 0.015,-0.038 0.03375,-0.071 -0.04875,0.019 -0.105,0.064 -0.0525,0.041 -0.10875,0.086 -0.0375,0.03 -0.0825,0.022 -0.04875,-0.01 -0.07875,-0.041 -0.03,-0.038 -0.0225,-0.082 0.0075,-0.045 0.04125,-0.079 0.0525,-0.037 0.10875,-0.082 0.05625,-0.045 0.12,-0.075 0.15375,-0.079 0.28125,-0.041 0.06,0.011 0.09,0.075 0.03,0.064 -0.0038,0.15 -0.03,0.086 -0.105,0.2438 -0.01875,0.045 -0.04125,0.09 -0.01875,0.045 -0.0375,0.086 -0.0075,0.015 -0.01125,0.026 -0.0038,0.011 -0.0075,0.022 0.0375,-0 0.09375,-0.022 0.06,-0.019 0.135,-0.056 0.07875,-0.041 0.18,-0.1087 0.10125,-0.067 0.2325,-0.1688 0.10125,-0.082 0.19125,-0.1612 0.09,-0.079 0.1575,-0.1425 0.0675,-0.064 0.10875,-0.105 0.04125,-0.041 0.04125,-0.041 0.045,-0.053 0.10875,-0.034 0.03,0.01 0.04875,0.026 0.01875,0.019 0.03,0.037 0.02625,0.053 0.0038,0.1238 -0.0225,0.071 -0.0825,0.2212 -0.0225,0.049 -0.045,0.098 -0.01875,0.049 -0.0375,0.09 -0.0038,0.019 -0.01125,0.041 0.0525,-0.01 0.1125,-0.041 0.06,-0.034 0.12,-0.075 0.06,-0.041 0.1125,-0.086 0.0525,-0.049 0.09375,-0.082 0.0375,-0.034 0.0825,-0.03 0.045,0 0.07875,0.037 0.03,0.038 0.02625,0.083 0,0.045 -0.0375,0.079 -0.08625,0.079 -0.17625,0.15 -0.09,0.068 -0.18375,0.12 -0.09,0.049 -0.18375,0.071 -0.09375,0.019 -0.18375,-0 -0.06,-0.023 -0.08625,-0.075 -0.0225,-0.053 -0.015,-0.1125 0.01125,-0.064 0.045,-0.1612 -0.04125,0.037 -0.08625,0.071 -0.04125,0.034 -0.09,0.075 -0.5175,0.4088 -0.80625,0.4088 z"
           id="path4292"
           style="" />
        <path
           d="m 21.766797,1026.4672 q -0.03,0 -0.05625,-0 -0.0225,-0 -0.04875,-0.011 -0.0675,-0.019 -0.09375,-0.079 -0.03375,-0.075 0,-0.18 0.0375,-0.1087 0.12,-0.2775 0.015,-0.03 0.03,-0.067 0.015,-0.038 0.03375,-0.071 -0.04875,0.019 -0.105,0.064 -0.0525,0.041 -0.10875,0.086 -0.0375,0.03 -0.0825,0.022 -0.04875,-0.01 -0.07875,-0.041 -0.03,-0.038 -0.0225,-0.082 0.0075,-0.045 0.04125,-0.079 0.0525,-0.037 0.10875,-0.082 0.05625,-0.045 0.12,-0.075 0.15375,-0.079 0.28125,-0.041 0.06,0.011 0.09,0.075 0.03,0.064 -0.0038,0.15 -0.03,0.086 -0.105,0.2438 -0.01875,0.045 -0.04125,0.09 -0.01875,0.045 -0.0375,0.086 -0.0075,0.015 -0.01125,0.026 -0.0038,0.011 -0.0075,0.022 0.0375,-0 0.09375,-0.022 0.06,-0.019 0.135,-0.056 0.07875,-0.041 0.18,-0.1087 0.10125,-0.067 0.2325,-0.1688 0.10125,-0.082 0.19125,-0.1612 0.09,-0.079 0.1575,-0.1425 0.0675,-0.064 0.10875,-0.105 0.04125,-0.041 0.04125,-0.041 0.045,-0.053 0.10875,-0.034 0.03,0.01 0.04875,0.026 0.01875,0.019 0.03,0.037 0.02625,0.053 0.0038,0.1238 -0.0225,0.071 -0.0825,0.2212 -0.0225,0.049 -0.045,0.098 -0.01875,0.049 -0.0375,0.09 -0.0038,0.019 -0.01125,0.041 0.0525,-0.01 0.1125,-0.041 0.06,-0.034 0.12,-0.075 0.06,-0.041 0.1125,-0.086 0.0525,-0.049 0.09375,-0.082 0.0375,-0.034 0.0825,-0.03 0.045,0 0.07875,0.037 0.03,0.038 0.02625,0.083 0,0.045 -0.0375,0.079 -0.08625,0.079 -0.17625,0.15 -0.09,0.068 -0.18375,0.12 -0.09,0.049 -0.18375,0.071 -0.09375,0.019 -0.18375,-0 -0.06,-0.023 -0.08625,-0.075 -0.0225,-0.053 -0.015,-0.1125 0.01125,-0.064 0.045,-0.1612 -0.04125,0.037 -0.08625,0.071 -0.04125,0.034 -0.09,0.075 -0.5175,0.4088 -0.80625,0.4088 z"
           id="path4294"
           style="" />
      </g>
      <g
         style="font-style:normal;font-variant:normal;font-weight:normal;font-stretch:normal;font-size:3.75px;line-height:125%;font-family:'Redacted Script';-inkscape-font-specification:'Redacted Script';text-align:start;letter-spacing:0px;word-spacing:0px;text-anchor:start;fill:#ffffff;fill-opacity:1;stroke:none;stroke-width:1px;stroke-linecap:butt;stroke-linejoin:miter;stroke-opacity:1"
         id="text4336">
        <path
           d="m 13.414,1041.4672 q -0.03,0 -0.05625,-0 -0.0225,-0 -0.04875,-0.011 -0.0675,-0.019 -0.09375,-0.079 -0.03375,-0.075 0,-0.18 0.0375,-0.1087 0.12,-0.2775 0.015,-0.03 0.03,-0.067 0.015,-0.038 0.03375,-0.071 -0.04875,0.019 -0.105,0.064 -0.0525,0.041 -0.10875,0.086 -0.0375,0.03 -0.0825,0.022 -0.04875,-0.01 -0.07875,-0.041 -0.03,-0.038 -0.0225,-0.082 0.0075,-0.045 0.04125,-0.079 0.0525,-0.037 0.10875,-0.082 0.05625,-0.045 0.12,-0.075 0.15375,-0.079 0.28125,-0.041 0.06,0.011 0.09,0.075 0.03,0.064 -0.0038,0.15 -0.03,0.086 -0.105,0.2438 -0.01875,0.045 -0.04125,0.09 -0.01875,0.045 -0.0375,0.086 -0.0075,0.015 -0.01125,0.026 -0.0038,0.011 -0.0075,0.022 0.0375,-0 0.09375,-0.022 0.06,-0.019 0.135,-0.056 0.07875,-0.041 0.18,-0.1087 0.10125,-0.067 0.2325,-0.1688 0.10125,-0.082 0.19125,-0.1612 0.09,-0.079 0.1575,-0.1425 0.0675,-0.064 0.10875,-0.105 0.04125,-0.041 0.04125,-0.041 0.045,-0.053 0.10875,-0.034 0.03,0.01 0.04875,0.026 0.01875,0.019 0.03,0.037 0.02625,0.053 0.0038,0.1238 -0.0225,0.071 -0.0825,0.2212 -0.0225,0.049 -0.045,0.098 -0.01875,0.049 -0.0375,0.09 -0.0038,0.019 -0.01125,0.041 0.0525,-0.01 0.1125,-0.041 0.06,-0.034 0.12,-0.075 0.06,-0.041 0.1125,-0.086 0.0525,-0.049 0.09375,-0.082 0.0375,-0.034 0.0825,-0.03 0.045,0 0.07875,0.037 0.03,0.038 0.02625,0.083 0,0.045 -0.0375,0.079 -0.08625,0.079 -0.17625,0.15 -0.09,0.068 -0.18375,0.12 -0.09,0.049 -0.18375,0.071 -0.09375,0.019 -0.18375,-0 -0.06,-0.023 -0.08625,-0.075 -0.0225,-0.053 -0.015,-0.1125 0.01125,-0.064 0.045,-0.1612 -0.04125,0.037 -0.08625,0.071 -0.04125,0.034 -0.09,0.075 -0.5175,0.4088 -0.80625,0.4088 z"
           id="path4267"
           style="" />
        <path
           d="m 15.406188,1041.4672 q -0.03,0 -0.05625,-0 -0.0225,-0 -0.04875,-0.011 -0.0675,-0.019 -0.09375,-0.079 -0.03375,-0.075 0,-0.18 0.0375,-0.1087 0.12,-0.2775 0.015,-0.03 0.03,-0.067 0.015,-0.038 0.03375,-0.071 -0.04875,0.019 -0.105,0.064 -0.0525,0.041 -0.10875,0.086 -0.0375,0.03 -0.0825,0.022 -0.04875,-0.01 -0.07875,-0.041 -0.03,-0.038 -0.0225,-0.082 0.0075,-0.045 0.04125,-0.079 0.0525,-0.037 0.10875,-0.082 0.05625,-0.045 0.12,-0.075 0.15375,-0.079 0.28125,-0.041 0.06,0.011 0.09,0.075 0.03,0.064 -0.0038,0.15 -0.03,0.086 -0.105,0.2438 -0.01875,0.045 -0.04125,0.09 -0.01875,0.045 -0.0375,0.086 -0.0075,0.015 -0.01125,0.026 -0.0038,0.011 -0.0075,0.022 0.0375,-0 0.09375,-0.022 0.06,-0.019 0.135,-0.056 0.07875,-0.041 0.18,-0.1087 0.10125,-0.067 0.2325,-0.1688 0.10125,-0.082 0.19125,-0.1612 0.09,-0.079 0.1575,-0.1425 0.0675,-0.064 0.10875,-0.105 0.04125,-0.041 0.04125,-0.041 0.045,-0.053 0.10875,-0.034 0.03,0.01 0.04875,0.026 0.01875,0.019 0.03,0.037 0.02625,0.053 0.0037,0.1238 -0.0225,0.071 -0.0825,0.2212 -0.0225,0.049 -0.045,0.098 -0.01875,0.049 -0.0375,0.09 -0.0038,0.019 -0.01125,0.041 0.0525,-0.01 0.1125,-0.041 0.06,-0.034 0.12,-0.075 0.06,-0.041 0.1125,-0.086 0.0525,-0.049 0.09375,-0.082 0.0375,-0.034 0.0825,-0.03 0.045,0 0.07875,0.037 0.03,0.038 0.02625,0.083 0,0.045 -0.0375,0.079 -0.08625,0.079 -0.17625,0.15 -0.09,0.068 -0.18375,0.12 -0.09,0.049 -0.18375,0.071 -0.09375,0.019 -0.18375,-0 -0.06,-0.023 -0.08625,-0.075 -0.0225,-0.053 -0.015,-0.1125 0.01125,-0.064 0.045,-0.1612 -0.04125,0.037 -0.08625,0.071 -0.04125,0.034 -0.09,0.075 -0.5175,0.4088 -0.80625,0.4088 z"
           id="path4269"
           style="" />
        <path
           d="m 17.597125,1041.1409 q -0.01875,0 -0.03,-0 -0.06,-0.015 -0.08625,-0.045 -0.0225,-0.034 -0.03,-0.053 -0.03,-0.082 0.015,-0.1688 0.04875,-0.09 0.12,-0.1875 0.0225,-0.03 0.04125,-0.064 0.01875,-0.034 0.0375,-0.064 0.0038,-0 0.01125,-0.015 -0.0225,0.01 -0.05625,0.023 -0.03,0.015 -0.07125,0.045 -0.0675,0.041 -0.1425,0.1088 -0.075,0.064 -0.15375,0.135 -0.01875,0.019 -0.04125,0.037 -0.01875,0.015 -0.0375,0.034 -0.03375,0.03 -0.07875,0.03 -0.04875,-0 -0.07875,-0.041 -0.03375,-0.034 -0.03,-0.079 0.0038,-0.049 0.0375,-0.079 0.01875,-0.019 0.04125,-0.034 0.01875,-0.019 0.0375,-0.038 0.09,-0.082 0.17625,-0.1537 0.09,-0.075 0.1725,-0.1275 0.08625,-0.053 0.16875,-0.075 0.08625,-0.026 0.165,-0 0.06375,0.019 0.09,0.053 0.02625,0.034 0.03375,0.06 0.03375,0.086 -0.015,0.1763 -0.04875,0.09 -0.12375,0.1987 -0.0075,0.01 -0.01875,0.026 -0.0075,0.015 -0.01875,0.03 0.05625,-0.022 0.1425,-0.053 0.09,-0.034 0.22125,-0.086 0.04875,-0.015 0.09,0.01 0.04125,0.019 0.05625,0.064 0.01875,0.041 -0.0038,0.086 -0.01875,0.041 -0.06,0.06 -0.12,0.041 -0.2175,0.075 -0.0975,0.034 -0.165,0.06 -0.0375,0.015 -0.0675,0.026 -0.02625,0.01 -0.04875,0.015 -0.03,0.01 -0.04875,0.015 -0.015,0 -0.03375,0 z"
           id="path4271"
           style="" />
        <path
           d="m 18.43109,1041.4672 q -0.03,0 -0.05625,-0 -0.0225,-0 -0.04875,-0.011 -0.0675,-0.019 -0.09375,-0.079 -0.03375,-0.075 0,-0.18 0.0375,-0.1087 0.12,-0.2775 0.015,-0.03 0.03,-0.067 0.015,-0.038 0.03375,-0.071 -0.04875,0.019 -0.105,0.064 -0.0525,0.041 -0.10875,0.086 -0.0375,0.03 -0.0825,0.022 -0.04875,-0.01 -0.07875,-0.041 -0.03,-0.038 -0.0225,-0.082 0.0075,-0.045 0.04125,-0.079 0.0525,-0.037 0.10875,-0.082 0.05625,-0.045 0.12,-0.075 0.15375,-0.079 0.28125,-0.041 0.06,0.011 0.09,0.075 0.03,0.064 -0.0038,0.15 -0.03,0.086 -0.105,0.2438 -0.01875,0.045 -0.04125,0.09 -0.01875,0.045 -0.0375,0.086 -0.0075,0.015 -0.01125,0.026 -0.0038,0.011 -0.0075,0.022 0.0375,-0 0.09375,-0.022 0.06,-0.019 0.135,-0.056 0.07875,-0.041 0.18,-0.1087 0.10125,-0.067 0.2325,-0.1688 0.10125,-0.082 0.19125,-0.1612 0.09,-0.079 0.1575,-0.1425 0.0675,-0.064 0.10875,-0.105 0.04125,-0.041 0.04125,-0.041 0.045,-0.053 0.10875,-0.034 0.03,0.01 0.04875,0.026 0.01875,0.019 0.03,0.037 0.02625,0.053 0.0038,0.1238 -0.0225,0.071 -0.0825,0.2212 -0.0225,0.049 -0.045,0.098 -0.01875,0.049 -0.0375,0.09 -0.0038,0.019 -0.01125,0.041 0.0525,-0.01 0.1125,-0.041 0.06,-0.034 0.12,-0.075 0.06,-0.041 0.1125,-0.086 0.0525,-0.049 0.09375,-0.082 0.0375,-0.034 0.0825,-0.03 0.045,0 0.07875,0.037 0.03,0.038 0.02625,0.083 0,0.045 -0.0375,0.079 -0.08625,0.079 -0.17625,0.15 -0.09,0.068 -0.18375,0.12 -0.09,0.049 -0.18375,0.071 -0.09375,0.019 -0.18375,-0 -0.06,-0.023 -0.08625,-0.075 -0.0225,-0.053 -0.015,-0.1125 0.01125,-0.064 0.045,-0.1612 -0.04125,0.037 -0.08625,0.071 -0.04125,0.034 -0.09,0.075 -0.5175,0.4088 -0.80625,0.4088 z"
           id="path4273"
           style="" />
        <path
           d="m 20.978278,1041.2534 q -0.045,0 -0.075,-0.026 -0.06,-0.049 -0.03375,-0.1238 0,-0 0.02625,-0.09 0.03,-0.086 0.0675,-0.195 0.01875,-0.064 0.03375,-0.1087 0.015,-0.049 0.02625,-0.086 -0.07875,0.03 -0.18,0.068 -0.10125,0.037 -0.2175,0.082 -0.1125,0.041 -0.2325,0.086 -0.12,0.045 -0.2325,0.086 -0.04125,0.015 -0.0825,-0 -0.045,-0.023 -0.06375,-0.067 -0.015,-0.041 0.0075,-0.082 0.01875,-0.045 0.06375,-0.064 0.16875,-0.06 0.34875,-0.1275 0.18375,-0.067 0.33375,-0.1237 0.15,-0.056 0.2475,-0.094 0.10125,-0.037 0.10125,-0.037 0.01875,-0 0.03375,-0 0.01875,-0 0.0375,0 0.0525,0.01 0.075,0.06 0.01875,0.03 0.015,0.079 0,0.045 -0.01875,0.1312 -0.01125,0.049 -0.03,0.1088 -0.015,0.056 -0.04125,0.1312 -0.0038,0.015 -0.0075,0.026 -0.0038,0.011 -0.0075,0.026 0.15,-0.082 0.3675,-0.1725 0.04125,-0.019 0.0825,0 0.04125,0.015 0.06,0.056 0.0225,0.041 0.0038,0.086 -0.01875,0.045 -0.06,0.064 -0.1275,0.056 -0.23625,0.1087 -0.10875,0.053 -0.1875,0.094 -0.09375,0.049 -0.16875,0.09 -0.0225,0.019 -0.05625,0.019 z"
           id="path4275"
           style="" />
        <path
           d="m 22.897047,1041.2159 q -0.02625,0 -0.04875,-0.01 -0.07125,-0.015 -0.10125,-0.086 -0.0225,-0.064 0.01125,-0.1425 0.03375,-0.079 0.0975,-0.1763 0.0225,-0.034 0.04125,-0.068 0.0225,-0.037 0.0375,-0.067 0.01125,-0.015 0.01875,-0.037 -0.1125,-0.019 -0.2625,-0.01 -0.14625,0.01 -0.33,0.056 -0.165,0.041 -0.34875,0.1087 -0.18375,0.064 -0.39,0.1538 -0.04125,0.019 -0.0825,0 -0.04125,-0.019 -0.06,-0.06 -0.0225,-0.041 -0.0038,-0.086 0.01875,-0.045 0.06,-0.064 0.21375,-0.094 0.40125,-0.1612 0.19125,-0.071 0.3675,-0.1125 0.46125,-0.1163 0.75375,-0.037 0.08625,0.023 0.12,0.105 0.03375,0.086 -0.015,0.1875 -0.04875,0.097 -0.11625,0.2062 -0.0075,0.01 -0.015,0.019 -0.0038,0.011 -0.01125,0.026 0.08625,-0.019 0.25125,-0.075 0.16875,-0.056 0.46875,-0.165 0.04125,-0.015 0.0825,0.01 0.045,0.019 0.06,0.064 0.01875,0.041 0,0.086 -0.01875,0.041 -0.0675,0.06 -0.1725,0.06 -0.315,0.1088 -0.1425,0.049 -0.255,0.082 -0.15375,0.045 -0.2325,0.064 -0.075,0.015 -0.11625,0.015 z"
           id="path4277"
           style="" />
        <path
           d="m 24.647711,1041.2534 q -0.045,0 -0.075,-0.026 -0.06,-0.049 -0.03375,-0.1238 0,-0 0.02625,-0.09 0.03,-0.086 0.0675,-0.195 0.01875,-0.064 0.03375,-0.1087 0.015,-0.049 0.02625,-0.086 -0.07875,0.03 -0.18,0.068 -0.10125,0.037 -0.2175,0.082 -0.1125,0.041 -0.2325,0.086 -0.12,0.045 -0.2325,0.086 -0.04125,0.015 -0.0825,-0 -0.045,-0.023 -0.06375,-0.067 -0.015,-0.041 0.0075,-0.082 0.01875,-0.045 0.06375,-0.064 0.16875,-0.06 0.34875,-0.1275 0.18375,-0.067 0.33375,-0.1237 0.15,-0.056 0.2475,-0.094 0.10125,-0.037 0.10125,-0.037 0.01875,-0 0.03375,-0 0.01875,-0 0.0375,0 0.0525,0.01 0.075,0.06 0.01875,0.03 0.015,0.079 0,0.045 -0.01875,0.1312 -0.01125,0.049 -0.03,0.1088 -0.015,0.056 -0.04125,0.1312 -0.0037,0.015 -0.0075,0.026 -0.0038,0.011 -0.0075,0.026 0.15,-0.082 0.3675,-0.1725 0.04125,-0.019 0.0825,0 0.04125,0.015 0.06,0.056 0.0225,0.041 0.0038,0.086 -0.01875,0.045 -0.06,0.064 -0.1275,0.056 -0.23625,0.1087 -0.10875,0.053 -0.1875,0.094 -0.09375,0.049 -0.16875,0.09 -0.0225,0.019 -0.05625,0.019 z"
           id="path4279"
           style="" />
        <path
           d="m 26.105231,1041.2534 q -0.045,0 -0.075,-0.026 -0.06,-0.049 -0.03375,-0.1238 0,-0 0.02625,-0.09 0.03,-0.086 0.0675,-0.195 0.01875,-0.064 0.03375,-0.1087 0.015,-0.049 0.02625,-0.086 -0.07875,0.03 -0.18,0.068 -0.10125,0.037 -0.2175,0.082 -0.1125,0.041 -0.2325,0.086 -0.12,0.045 -0.2325,0.086 -0.04125,0.015 -0.0825,-0 -0.045,-0.023 -0.06375,-0.067 -0.015,-0.041 0.0075,-0.082 0.01875,-0.045 0.06375,-0.064 0.16875,-0.06 0.34875,-0.1275 0.18375,-0.067 0.33375,-0.1237 0.15,-0.056 0.2475,-0.094 0.10125,-0.037 0.10125,-0.037 0.01875,-0 0.03375,-0 0.01875,-0 0.0375,0 0.0525,0.01 0.075,0.06 0.01875,0.03 0.015,0.079 0,0.045 -0.01875,0.1312 -0.01125,0.049 -0.03,0.1088 -0.015,0.056 -0.04125,0.1312 -0.0038,0.015 -0.0075,0.026 -0.0038,0.011 -0.0075,0.026 0.15,-0.082 0.3675,-0.1725 0.04125,-0.019 0.0825,0 0.04125,0.015 0.06,0.056 0.0225,0.041 0.0037,0.086 -0.01875,0.045 -0.06,0.064 -0.1275,0.056 -0.23625,0.1087 -0.10875,0.053 -0.1875,0.094 -0.09375,0.049 -0.16875,0.09 -0.0225,0.019 -0.05625,0.019 z"
           id="path4281"
           style="" />
      </g>
      <g
         style="font-style:normal;font-variant:normal;font-weight:normal;font-stretch:normal;font-size:3.75px;line-height:125%;font-family:'Redacted Script';-inkscape-font-specification:'Redacted Script';text-align:start;letter-spacing:0px;word-spacing:0px;text-anchor:start;fill:#333333;fill-opacity:1;stroke:none;stroke-width:1px;stroke-linecap:butt;stroke-linejoin:miter;stroke-opacity:1"
         id="text4300">
        <path
           d="m 13.414,1040.4672 q -0.03,0 -0.05625,-0 -0.0225,-0 -0.04875,-0.011 -0.0675,-0.019 -0.09375,-0.079 -0.03375,-0.075 0,-0.18 0.0375,-0.1087 0.12,-0.2775 0.015,-0.03 0.03,-0.067 0.015,-0.038 0.03375,-0.071 -0.04875,0.019 -0.105,0.064 -0.0525,0.041 -0.10875,0.086 -0.0375,0.03 -0.0825,0.022 -0.04875,-0.01 -0.07875,-0.041 -0.03,-0.038 -0.0225,-0.082 0.0075,-0.045 0.04125,-0.079 0.0525,-0.037 0.10875,-0.082 0.05625,-0.045 0.12,-0.075 0.15375,-0.079 0.28125,-0.041 0.06,0.011 0.09,0.075 0.03,0.064 -0.0038,0.15 -0.03,0.086 -0.105,0.2438 -0.01875,0.045 -0.04125,0.09 -0.01875,0.045 -0.0375,0.086 -0.0075,0.015 -0.01125,0.026 -0.0038,0.011 -0.0075,0.022 0.0375,-0 0.09375,-0.022 0.06,-0.019 0.135,-0.056 0.07875,-0.041 0.18,-0.1087 0.10125,-0.067 0.2325,-0.1688 0.10125,-0.082 0.19125,-0.1612 0.09,-0.079 0.1575,-0.1425 0.0675,-0.064 0.10875,-0.105 0.04125,-0.041 0.04125,-0.041 0.045,-0.053 0.10875,-0.034 0.03,0.01 0.04875,0.026 0.01875,0.019 0.03,0.037 0.02625,0.053 0.0038,0.1238 -0.0225,0.071 -0.0825,0.2212 -0.0225,0.049 -0.045,0.098 -0.01875,0.049 -0.0375,0.09 -0.0038,0.019 -0.01125,0.041 0.0525,-0.01 0.1125,-0.041 0.06,-0.034 0.12,-0.075 0.06,-0.041 0.1125,-0.086 0.0525,-0.049 0.09375,-0.082 0.0375,-0.034 0.0825,-0.03 0.045,0 0.07875,0.037 0.03,0.038 0.02625,0.083 0,0.045 -0.0375,0.079 -0.08625,0.079 -0.17625,0.15 -0.09,0.068 -0.18375,0.12 -0.09,0.049 -0.18375,0.071 -0.09375,0.019 -0.18375,-0 -0.06,-0.023 -0.08625,-0.075 -0.0225,-0.053 -0.015,-0.1125 0.01125,-0.064 0.045,-0.1612 -0.04125,0.037 -0.08625,0.071 -0.04125,0.034 -0.09,0.075 -0.5175,0.4088 -0.80625,0.4088 z"
           id="path4250"
           style="" />
        <path
           d="m 15.406188,1040.4672 q -0.03,0 -0.05625,-0 -0.0225,-0 -0.04875,-0.011 -0.0675,-0.019 -0.09375,-0.079 -0.03375,-0.075 0,-0.18 0.0375,-0.1087 0.12,-0.2775 0.015,-0.03 0.03,-0.067 0.015,-0.038 0.03375,-0.071 -0.04875,0.019 -0.105,0.064 -0.0525,0.041 -0.10875,0.086 -0.0375,0.03 -0.0825,0.022 -0.04875,-0.01 -0.07875,-0.041 -0.03,-0.038 -0.0225,-0.082 0.0075,-0.045 0.04125,-0.079 0.0525,-0.037 0.10875,-0.082 0.05625,-0.045 0.12,-0.075 0.15375,-0.079 0.28125,-0.041 0.06,0.011 0.09,0.075 0.03,0.064 -0.0038,0.15 -0.03,0.086 -0.105,0.2438 -0.01875,0.045 -0.04125,0.09 -0.01875,0.045 -0.0375,0.086 -0.0075,0.015 -0.01125,0.026 -0.0038,0.011 -0.0075,0.022 0.0375,-0 0.09375,-0.022 0.06,-0.019 0.135,-0.056 0.07875,-0.041 0.18,-0.1087 0.10125,-0.067 0.2325,-0.1688 0.10125,-0.082 0.19125,-0.1612 0.09,-0.079 0.1575,-0.1425 0.0675,-0.064 0.10875,-0.105 0.04125,-0.041 0.04125,-0.041 0.045,-0.053 0.10875,-0.034 0.03,0.01 0.04875,0.026 0.01875,0.019 0.03,0.037 0.02625,0.053 0.0037,0.1238 -0.0225,0.071 -0.0825,0.2212 -0.0225,0.049 -0.045,0.098 -0.01875,0.049 -0.0375,0.09 -0.0038,0.019 -0.01125,0.041 0.0525,-0.01 0.1125,-0.041 0.06,-0.034 0.12,-0.075 0.06,-0.041 0.1125,-0.086 0.0525,-0.049 0.09375,-0.082 0.0375,-0.034 0.0825,-0.03 0.045,0 0.07875,0.037 0.03,0.038 0.02625,0.083 0,0.045 -0.0375,0.079 -0.08625,0.079 -0.17625,0.15 -0.09,0.068 -0.18375,0.12 -0.09,0.049 -0.18375,0.071 -0.09375,0.019 -0.18375,-0 -0.06,-0.023 -0.08625,-0.075 -0.0225,-0.053 -0.015,-0.1125 0.01125,-0.064 0.045,-0.1612 -0.04125,0.037 -0.08625,0.071 -0.04125,0.034 -0.09,0.075 -0.5175,0.4088 -0.80625,0.4088 z"
           id="path4252"
           style="" />
        <path
           d="m 17.597125,1040.1409 q -0.01875,0 -0.03,-0 -0.06,-0.015 -0.08625,-0.045 -0.0225,-0.034 -0.03,-0.053 -0.03,-0.082 0.015,-0.1688 0.04875,-0.09 0.12,-0.1875 0.0225,-0.03 0.04125,-0.064 0.01875,-0.034 0.0375,-0.064 0.0038,-0 0.01125,-0.015 -0.0225,0.01 -0.05625,0.023 -0.03,0.015 -0.07125,0.045 -0.0675,0.041 -0.1425,0.1088 -0.075,0.064 -0.15375,0.135 -0.01875,0.019 -0.04125,0.037 -0.01875,0.015 -0.0375,0.034 -0.03375,0.03 -0.07875,0.03 -0.04875,-0 -0.07875,-0.041 -0.03375,-0.034 -0.03,-0.079 0.0038,-0.049 0.0375,-0.079 0.01875,-0.019 0.04125,-0.034 0.01875,-0.019 0.0375,-0.038 0.09,-0.082 0.17625,-0.1537 0.09,-0.075 0.1725,-0.1275 0.08625,-0.053 0.16875,-0.075 0.08625,-0.026 0.165,-0 0.06375,0.019 0.09,0.053 0.02625,0.034 0.03375,0.06 0.03375,0.086 -0.015,0.1763 -0.04875,0.09 -0.12375,0.1987 -0.0075,0.01 -0.01875,0.026 -0.0075,0.015 -0.01875,0.03 0.05625,-0.022 0.1425,-0.053 0.09,-0.034 0.22125,-0.086 0.04875,-0.015 0.09,0.01 0.04125,0.019 0.05625,0.064 0.01875,0.041 -0.0038,0.086 -0.01875,0.041 -0.06,0.06 -0.12,0.041 -0.2175,0.075 -0.0975,0.034 -0.165,0.06 -0.0375,0.015 -0.0675,0.026 -0.02625,0.01 -0.04875,0.015 -0.03,0.01 -0.04875,0.015 -0.015,0 -0.03375,0 z"
           id="path4254"
           style="" />
        <path
           d="m 18.43109,1040.4672 q -0.03,0 -0.05625,-0 -0.0225,-0 -0.04875,-0.011 -0.0675,-0.019 -0.09375,-0.079 -0.03375,-0.075 0,-0.18 0.0375,-0.1087 0.12,-0.2775 0.015,-0.03 0.03,-0.067 0.015,-0.038 0.03375,-0.071 -0.04875,0.019 -0.105,0.064 -0.0525,0.041 -0.10875,0.086 -0.0375,0.03 -0.0825,0.022 -0.04875,-0.01 -0.07875,-0.041 -0.03,-0.038 -0.0225,-0.082 0.0075,-0.045 0.04125,-0.079 0.0525,-0.037 0.10875,-0.082 0.05625,-0.045 0.12,-0.075 0.15375,-0.079 0.28125,-0.041 0.06,0.011 0.09,0.075 0.03,0.064 -0.0038,0.15 -0.03,0.086 -0.105,0.2438 -0.01875,0.045 -0.04125,0.09 -0.01875,0.045 -0.0375,0.086 -0.0075,0.015 -0.01125,0.026 -0.0038,0.011 -0.0075,0.022 0.0375,-0 0.09375,-0.022 0.06,-0.019 0.135,-0.056 0.07875,-0.041 0.18,-0.1087 0.10125,-0.067 0.2325,-0.1688 0.10125,-0.082 0.19125,-0.1612 0.09,-0.079 0.1575,-0.1425 0.0675,-0.064 0.10875,-0.105 0.04125,-0.041 0.04125,-0.041 0.045,-0.053 0.10875,-0.034 0.03,0.01 0.04875,0.026 0.01875,0.019 0.03,0.037 0.02625,0.053 0.0038,0.1238 -0.0225,0.071 -0.0825,0.2212 -0.0225,0.049 -0.045,0.098 -0.01875,0.049 -0.0375,0.09 -0.0038,0.019 -0.01125,0.041 0.0525,-0.01 0.1125,-0.041 0.06,-0.034 0.12,-0.075 0.06,-0.041 0.1125,-0.086 0.0525,-0.049 0.09375,-0.082 0.0375,-0.034 0.0825,-0.03 0.045,0 0.07875,0.037 0.03,0.038 0.02625,0.083 0,0.045 -0.0375,0.079 -0.08625,0.079 -0.17625,0.15 -0.09,0.068 -0.18375,0.12 -0.09,0.049 -0.18375,0.071 -0.09375,0.019 -0.18375,-0 -0.06,-0.023 -0.08625,-0.075 -0.0225,-0.053 -0.015,-0.1125 0.01125,-0.064 0.045,-0.1612 -0.04125,0.037 -0.08625,0.071 -0.04125,0.034 -0.09,0.075 -0.5175,0.4088 -0.80625,0.4088 z"
           id="path4256"
           style="" />
        <path
           d="m 20.978278,1040.2534 q -0.045,0 -0.075,-0.026 -0.06,-0.049 -0.03375,-0.1238 0,-0 0.02625,-0.09 0.03,-0.086 0.0675,-0.195 0.01875,-0.064 0.03375,-0.1087 0.015,-0.049 0.02625,-0.086 -0.07875,0.03 -0.18,0.068 -0.10125,0.037 -0.2175,0.082 -0.1125,0.041 -0.2325,0.086 -0.12,0.045 -0.2325,0.086 -0.04125,0.015 -0.0825,-0 -0.045,-0.023 -0.06375,-0.067 -0.015,-0.041 0.0075,-0.082 0.01875,-0.045 0.06375,-0.064 0.16875,-0.06 0.34875,-0.1275 0.18375,-0.067 0.33375,-0.1237 0.15,-0.056 0.2475,-0.094 0.10125,-0.037 0.10125,-0.037 0.01875,-0 0.03375,-0 0.01875,-0 0.0375,0 0.0525,0.01 0.075,0.06 0.01875,0.03 0.015,0.079 0,0.045 -0.01875,0.1312 -0.01125,0.049 -0.03,0.1088 -0.015,0.056 -0.04125,0.1312 -0.0038,0.015 -0.0075,0.026 -0.0038,0.011 -0.0075,0.026 0.15,-0.082 0.3675,-0.1725 0.04125,-0.019 0.0825,0 0.04125,0.015 0.06,0.056 0.0225,0.041 0.0038,0.086 -0.01875,0.045 -0.06,0.064 -0.1275,0.056 -0.23625,0.1087 -0.10875,0.053 -0.1875,0.094 -0.09375,0.049 -0.16875,0.09 -0.0225,0.019 -0.05625,0.019 z"
           id="path4258"
           style="" />
        <path
           d="m 22.897047,1040.2159 q -0.02625,0 -0.04875,-0.01 -0.07125,-0.015 -0.10125,-0.086 -0.0225,-0.064 0.01125,-0.1425 0.03375,-0.079 0.0975,-0.1763 0.0225,-0.034 0.04125,-0.068 0.0225,-0.037 0.0375,-0.067 0.01125,-0.015 0.01875,-0.037 -0.1125,-0.019 -0.2625,-0.01 -0.14625,0.01 -0.33,0.056 -0.165,0.041 -0.34875,0.1087 -0.18375,0.064 -0.39,0.1538 -0.04125,0.019 -0.0825,0 -0.04125,-0.019 -0.06,-0.06 -0.0225,-0.041 -0.0038,-0.086 0.01875,-0.045 0.06,-0.064 0.21375,-0.094 0.40125,-0.1612 0.19125,-0.071 0.3675,-0.1125 0.46125,-0.1163 0.75375,-0.037 0.08625,0.023 0.12,0.105 0.03375,0.086 -0.015,0.1875 -0.04875,0.097 -0.11625,0.2062 -0.0075,0.01 -0.015,0.019 -0.0038,0.011 -0.01125,0.026 0.08625,-0.019 0.25125,-0.075 0.16875,-0.056 0.46875,-0.165 0.04125,-0.015 0.0825,0.01 0.045,0.019 0.06,0.064 0.01875,0.041 0,0.086 -0.01875,0.041 -0.0675,0.06 -0.1725,0.06 -0.315,0.1088 -0.1425,0.049 -0.255,0.082 -0.15375,0.045 -0.2325,0.064 -0.075,0.015 -0.11625,0.015 z"
           id="path4260"
           style="" />
        <path
           d="m 24.647711,1040.2534 q -0.045,0 -0.075,-0.026 -0.06,-0.049 -0.03375,-0.1238 0,-0 0.02625,-0.09 0.03,-0.086 0.0675,-0.195 0.01875,-0.064 0.03375,-0.1087 0.015,-0.049 0.02625,-0.086 -0.07875,0.03 -0.18,0.068 -0.10125,0.037 -0.2175,0.082 -0.1125,0.041 -0.2325,0.086 -0.12,0.045 -0.2325,0.086 -0.04125,0.015 -0.0825,-0 -0.045,-0.023 -0.06375,-0.067 -0.015,-0.041 0.0075,-0.082 0.01875,-0.045 0.06375,-0.064 0.16875,-0.06 0.34875,-0.1275 0.18375,-0.067 0.33375,-0.1237 0.15,-0.056 0.2475,-0.094 0.10125,-0.037 0.10125,-0.037 0.01875,-0 0.03375,-0 0.01875,-0 0.0375,0 0.0525,0.01 0.075,0.06 0.01875,0.03 0.015,0.079 0,0.045 -0.01875,0.1312 -0.01125,0.049 -0.03,0.1088 -0.015,0.056 -0.04125,0.1312 -0.0037,0.015 -0.0075,0.026 -0.0038,0.011 -0.0075,0.026 0.15,-0.082 0.3675,-0.1725 0.04125,-0.019 0.0825,0 0.04125,0.015 0.06,0.056 0.0225,0.041 0.0038,0.086 -0.01875,0.045 -0.06,0.064 -0.1275,0.056 -0.23625,0.1087 -0.10875,0.053 -0.1875,0.094 -0.09375,0.049 -0.16875,0.09 -0.0225,0.019 -0.05625,0.019 z"
           id="path4262"
           style="" />
        <path
           d="m 26.105231,1040.2534 q -0.045,0 -0.075,-0.026 -0.06,-0.049 -0.03375,-0.1238 0,-0 0.02625,-0.09 0.03,-0.086 0.0675,-0.195 0.01875,-0.064 0.03375,-0.1087 0.015,-0.049 0.02625,-0.086 -0.07875,0.03 -0.18,0.068 -0.10125,0.037 -0.2175,0.082 -0.1125,0.041 -0.2325,0.086 -0.12,0.045 -0.2325,0.086 -0.04125,0.015 -0.0825,-0 -0.045,-0.023 -0.06375,-0.067 -0.015,-0.041 0.0075,-0.082 0.01875,-0.045 0.06375,-0.064 0.16875,-0.06 0.34875,-0.1275 0.18375,-0.067 0.33375,-0.1237 0.15,-0.056 0.2475,-0.094 0.10125,-0.037 0.10125,-0.037 0.01875,-0 0.03375,-0 0.01875,-0 0.0375,0 0.0525,0.01 0.075,0.06 0.01875,0.03 0.015,0.079 0,0.045 -0.01875,0.1312 -0.01125,0.049 -0.03,0.1088 -0.015,0.056 -0.04125,0.1312 -0.0038,0.015 -0.0075,0.026 -0.0038,0.011 -0.0075,0.026 0.15,-0.082 0.3675,-0.1725 0.04125,-0.019 0.0825,0 0.04125,0.015 0.06,0.056 0.0225,0.041 0.0037,0.086 -0.01875,0.045 -0.06,0.064 -0.1275,0.056 -0.23625,0.1087 -0.10875,0.053 -0.1875,0.094 -0.09375,0.049 -0.16875,0.09 -0.0225,0.019 -0.05625,0.019 z"
           id="path4264"
           style="" />
      </g>
      <g
         style="font-style:normal;font-variant:normal;font-weight:normal;font-stretch:normal;font-size:3.75px;line-height:125%;font-family:'Redacted Script';-inkscape-font-specification:'Redacted Script';text-align:start;letter-spacing:0px;word-spacing:0px;text-anchor:start;fill:#ffffff;fill-opacity:1;stroke:none;stroke-width:1px;stroke-linecap:butt;stroke-linejoin:miter;stroke-opacity:1"
         id="text4340">
        <path
           d="m 13.61275,1048.1409 q -0.01875,0 -0.03,-0 -0.06,-0.015 -0.08625,-0.045 -0.0225,-0.034 -0.03,-0.053 -0.03,-0.082 0.015,-0.1688 0.04875,-0.09 0.12,-0.1875 0.0225,-0.03 0.04125,-0.064 0.01875,-0.034 0.0375,-0.064 0.0038,-0 0.01125,-0.015 -0.0225,0.01 -0.05625,0.023 -0.03,0.015 -0.07125,0.045 -0.0675,0.041 -0.1425,0.1088 -0.075,0.064 -0.15375,0.135 -0.01875,0.019 -0.04125,0.037 -0.01875,0.015 -0.0375,0.034 -0.03375,0.03 -0.07875,0.03 -0.04875,-0 -0.07875,-0.041 -0.03375,-0.034 -0.03,-0.079 0.0038,-0.049 0.0375,-0.079 0.01875,-0.019 0.04125,-0.034 0.01875,-0.019 0.0375,-0.038 0.09,-0.082 0.17625,-0.1537 0.09,-0.075 0.1725,-0.1275 0.08625,-0.053 0.16875,-0.075 0.08625,-0.026 0.165,-0 0.06375,0.019 0.09,0.053 0.02625,0.034 0.03375,0.06 0.03375,0.086 -0.015,0.1763 -0.04875,0.09 -0.12375,0.1987 -0.0075,0.01 -0.01875,0.026 -0.0075,0.015 -0.01875,0.03 0.05625,-0.022 0.1425,-0.053 0.09,-0.034 0.22125,-0.086 0.04875,-0.015 0.09,0.01 0.04125,0.019 0.05625,0.064 0.01875,0.041 -0.0038,0.086 -0.01875,0.041 -0.06,0.06 -0.12,0.041 -0.2175,0.075 -0.0975,0.034 -0.165,0.06 -0.0375,0.015 -0.0675,0.026 -0.02625,0.01 -0.04875,0.015 -0.03,0.01 -0.04875,0.015 -0.015,0 -0.03375,0 z"
           id="path4235"
           style="" />
        <path
           d="m 14.446715,1048.4672 q -0.03,0 -0.05625,-0 -0.0225,-0 -0.04875,-0.011 -0.0675,-0.019 -0.09375,-0.079 -0.03375,-0.075 0,-0.18 0.0375,-0.1087 0.12,-0.2775 0.015,-0.03 0.03,-0.067 0.015,-0.038 0.03375,-0.071 -0.04875,0.019 -0.105,0.064 -0.0525,0.041 -0.10875,0.086 -0.0375,0.03 -0.0825,0.022 -0.04875,-0.01 -0.07875,-0.041 -0.03,-0.038 -0.0225,-0.082 0.0075,-0.045 0.04125,-0.079 0.0525,-0.037 0.10875,-0.082 0.05625,-0.045 0.12,-0.075 0.15375,-0.079 0.28125,-0.041 0.06,0.011 0.09,0.075 0.03,0.064 -0.0038,0.15 -0.03,0.086 -0.105,0.2438 -0.01875,0.045 -0.04125,0.09 -0.01875,0.045 -0.0375,0.086 -0.0075,0.015 -0.01125,0.026 -0.0038,0.011 -0.0075,0.022 0.0375,-0 0.09375,-0.022 0.06,-0.019 0.135,-0.056 0.07875,-0.041 0.18,-0.1087 0.10125,-0.067 0.2325,-0.1688 0.10125,-0.082 0.19125,-0.1612 0.09,-0.079 0.1575,-0.1425 0.0675,-0.064 0.10875,-0.105 0.04125,-0.041 0.04125,-0.041 0.045,-0.053 0.10875,-0.034 0.03,0.01 0.04875,0.026 0.01875,0.019 0.03,0.037 0.02625,0.053 0.0038,0.1238 -0.0225,0.071 -0.0825,0.2212 -0.0225,0.049 -0.045,0.098 -0.01875,0.049 -0.0375,0.09 -0.0038,0.019 -0.01125,0.041 0.0525,-0.01 0.1125,-0.041 0.06,-0.034 0.12,-0.075 0.06,-0.041 0.1125,-0.086 0.0525,-0.049 0.09375,-0.082 0.0375,-0.034 0.0825,-0.03 0.045,0 0.07875,0.037 0.03,0.038 0.02625,0.083 0,0.045 -0.0375,0.079 -0.08625,0.079 -0.17625,0.15 -0.09,0.068 -0.18375,0.12 -0.09,0.049 -0.18375,0.071 -0.09375,0.019 -0.18375,-0 -0.06,-0.023 -0.08625,-0.075 -0.0225,-0.053 -0.015,-0.1125 0.01125,-0.064 0.045,-0.1612 -0.04125,0.037 -0.08625,0.071 -0.04125,0.034 -0.09,0.075 -0.5175,0.4088 -0.80625,0.4088 z"
           id="path4237"
           style="" />
        <path
           d="m 17.455153,1048.2159 q -0.02625,0 -0.04875,-0.01 -0.07125,-0.015 -0.10125,-0.086 -0.0225,-0.064 0.01125,-0.1425 0.03375,-0.079 0.0975,-0.1763 0.0225,-0.034 0.04125,-0.068 0.0225,-0.037 0.0375,-0.067 0.01125,-0.015 0.01875,-0.037 -0.1125,-0.019 -0.2625,-0.01 -0.14625,0.01 -0.33,0.056 -0.165,0.041 -0.34875,0.1087 -0.18375,0.064 -0.39,0.1538 -0.04125,0.019 -0.0825,0 -0.04125,-0.019 -0.06,-0.06 -0.0225,-0.041 -0.0038,-0.086 0.01875,-0.045 0.06,-0.064 0.21375,-0.094 0.40125,-0.1612 0.19125,-0.071 0.3675,-0.1125 0.46125,-0.1163 0.75375,-0.037 0.08625,0.023 0.12,0.105 0.03375,0.086 -0.015,0.1875 -0.04875,0.097 -0.11625,0.2062 -0.0075,0.01 -0.015,0.019 -0.0038,0.011 -0.01125,0.026 0.08625,-0.019 0.25125,-0.075 0.16875,-0.056 0.46875,-0.165 0.04125,-0.015 0.0825,0.01 0.045,0.019 0.06,0.064 0.01875,0.041 0,0.086 -0.01875,0.041 -0.0675,0.06 -0.1725,0.06 -0.315,0.1088 -0.1425,0.049 -0.255,0.082 -0.15375,0.045 -0.2325,0.064 -0.075,0.015 -0.11625,0.015 z"
           id="path4240"
           style="" />
        <path
           d="m 18.823317,1048.4747 q -0.01875,0 -0.0375,-0 -0.01875,0 -0.04125,-0 -0.045,-0.015 -0.075,-0.064 -0.01125,-0.022 -0.015,-0.053 -0.0038,-0.034 0.0075,-0.097 0.015,-0.064 0.045,-0.1725 0.03375,-0.1125 0.09,-0.2887 -0.08625,0.03 -0.19125,0.071 -0.105,0.041 -0.2175,0.082 -0.04125,0.015 -0.0825,-0 -0.045,-0.023 -0.06375,-0.067 -0.015,-0.041 0.0075,-0.082 0.01875,-0.045 0.06375,-0.064 0.12,-0.045 0.2325,-0.086 0.1125,-0.041 0.19875,-0.071 0.08625,-0.034 0.13875,-0.053 0.0525,-0.023 0.0525,-0.023 0.0375,-0.015 0.07125,-0 0.04875,0.011 0.07125,0.056 0.01875,0.034 0.01125,0.06 -0.0038,0.026 -0.01125,0.056 -0.0075,0.015 -0.01125,0.034 -0.0038,0.015 -0.01125,0.037 -0.02625,0.064 -0.05625,0.1575 -0.02625,0.09 -0.05625,0.1838 -0.01875,0.053 -0.03,0.09 -0.01125,0.037 -0.01875,0.067 0.07125,-0.015 0.20625,-0.086 0.11625,-0.064 0.2475,-0.1462 0.13125,-0.082 0.27375,-0.18 0.03,-0.019 0.06,-0.038 0.03,-0.019 0.06,-0.041 0.04125,-0.026 0.08625,-0.015 0.045,0.01 0.075,0.049 0.02625,0.041 0.015,0.086 -0.0075,0.041 -0.04875,0.068 -0.03,0.023 -0.06375,0.045 -0.03,0.019 -0.06375,0.041 -0.1425,0.094 -0.2775,0.18 -0.135,0.086 -0.255,0.15 -0.24375,0.1275 -0.38625,0.1275 z"
           id="path4242"
           style="" />
        <path
           d="m 20.11566,1048.4672 q -0.03,0 -0.05625,-0 -0.0225,-0 -0.04875,-0.011 -0.0675,-0.019 -0.09375,-0.079 -0.03375,-0.075 0,-0.18 0.0375,-0.1087 0.12,-0.2775 0.015,-0.03 0.03,-0.067 0.015,-0.038 0.03375,-0.071 -0.04875,0.019 -0.105,0.064 -0.0525,0.041 -0.10875,0.086 -0.0375,0.03 -0.0825,0.022 -0.04875,-0.01 -0.07875,-0.041 -0.03,-0.038 -0.0225,-0.082 0.0075,-0.045 0.04125,-0.079 0.0525,-0.037 0.10875,-0.082 0.05625,-0.045 0.12,-0.075 0.15375,-0.079 0.28125,-0.041 0.06,0.011 0.09,0.075 0.03,0.064 -0.0038,0.15 -0.03,0.086 -0.105,0.2438 -0.01875,0.045 -0.04125,0.09 -0.01875,0.045 -0.0375,0.086 -0.0075,0.015 -0.01125,0.026 -0.0038,0.011 -0.0075,0.022 0.0375,-0 0.09375,-0.022 0.06,-0.019 0.135,-0.056 0.07875,-0.041 0.18,-0.1087 0.10125,-0.067 0.2325,-0.1688 0.10125,-0.082 0.19125,-0.1612 0.09,-0.079 0.1575,-0.1425 0.0675,-0.064 0.10875,-0.105 0.04125,-0.041 0.04125,-0.041 0.045,-0.053 0.10875,-0.034 0.03,0.01 0.04875,0.026 0.01875,0.019 0.03,0.037 0.02625,0.053 0.0038,0.1238 -0.0225,0.071 -0.0825,0.2212 -0.0225,0.049 -0.045,0.098 -0.01875,0.049 -0.0375,0.09 -0.0038,0.019 -0.01125,0.041 0.0525,-0.01 0.1125,-0.041 0.06,-0.034 0.12,-0.075 0.06,-0.041 0.1125,-0.086 0.0525,-0.049 0.09375,-0.082 0.0375,-0.034 0.0825,-0.03 0.045,0 0.07875,0.037 0.03,0.038 0.02625,0.083 0,0.045 -0.0375,0.079 -0.08625,0.079 -0.17625,0.15 -0.09,0.068 -0.18375,0.12 -0.09,0.049 -0.18375,0.071 -0.09375,0.019 -0.18375,-0 -0.06,-0.023 -0.08625,-0.075 -0.0225,-0.053 -0.015,-0.1125 0.01125,-0.064 0.045,-0.1612 -0.04125,0.037 -0.08625,0.071 -0.04125,0.034 -0.09,0.075 -0.5175,0.4088 -0.80625,0.4088 z"
           id="path4244"
           style="" />
        <path
           d="m 22.280348,1048.4747 q -0.01875,0 -0.0375,-0 -0.01875,0 -0.04125,-0 -0.045,-0.015 -0.075,-0.064 -0.01125,-0.022 -0.015,-0.053 -0.0038,-0.034 0.0075,-0.097 0.015,-0.064 0.045,-0.1725 0.03375,-0.1125 0.09,-0.2887 -0.08625,0.03 -0.19125,0.071 -0.105,0.041 -0.2175,0.082 -0.04125,0.015 -0.0825,-0 -0.045,-0.023 -0.06375,-0.067 -0.015,-0.041 0.0075,-0.082 0.01875,-0.045 0.06375,-0.064 0.12,-0.045 0.2325,-0.086 0.1125,-0.041 0.19875,-0.071 0.08625,-0.034 0.13875,-0.053 0.0525,-0.023 0.0525,-0.023 0.0375,-0.015 0.07125,-0 0.04875,0.011 0.07125,0.056 0.01875,0.034 0.01125,0.06 -0.0038,0.026 -0.01125,0.056 -0.0075,0.015 -0.01125,0.034 -0.0038,0.015 -0.01125,0.037 -0.02625,0.064 -0.05625,0.1575 -0.02625,0.09 -0.05625,0.1838 -0.01875,0.053 -0.03,0.09 -0.01125,0.037 -0.01875,0.067 0.07125,-0.015 0.20625,-0.086 0.11625,-0.064 0.2475,-0.1462 0.13125,-0.082 0.27375,-0.18 0.03,-0.019 0.06,-0.038 0.03,-0.019 0.06,-0.041 0.04125,-0.026 0.08625,-0.015 0.045,0.01 0.075,0.049 0.02625,0.041 0.015,0.086 -0.0075,0.041 -0.04875,0.068 -0.03,0.023 -0.06375,0.045 -0.03,0.019 -0.06375,0.041 -0.1425,0.094 -0.2775,0.18 -0.135,0.086 -0.255,0.15 -0.24375,0.1275 -0.38625,0.1275 z"
           id="path4246"
           style="" />
      </g>
      <g
         style="font-style:normal;font-variant:normal;font-weight:normal;font-stretch:normal;font-size:3.75px;line-height:125%;font-family:'Redacted Script';-inkscape-font-specification:'Redacted Script';text-align:start;letter-spacing:0px;word-spacing:0px;text-anchor:start;fill:#333333;fill-opacity:1;stroke:none;stroke-width:1px;stroke-linecap:butt;stroke-linejoin:miter;stroke-opacity:1"
         id="text4304">
        <path
           d="m 13.61275,1047.1409 q -0.01875,0 -0.03,-0 -0.06,-0.015 -0.08625,-0.045 -0.0225,-0.034 -0.03,-0.053 -0.03,-0.082 0.015,-0.1688 0.04875,-0.09 0.12,-0.1875 0.0225,-0.03 0.04125,-0.064 0.01875,-0.034 0.0375,-0.064 0.0038,-0 0.01125,-0.015 -0.0225,0.01 -0.05625,0.023 -0.03,0.015 -0.07125,0.045 -0.0675,0.041 -0.1425,0.1088 -0.075,0.064 -0.15375,0.135 -0.01875,0.019 -0.04125,0.037 -0.01875,0.015 -0.0375,0.034 -0.03375,0.03 -0.07875,0.03 -0.04875,-0 -0.07875,-0.041 -0.03375,-0.034 -0.03,-0.079 0.0038,-0.049 0.0375,-0.079 0.01875,-0.019 0.04125,-0.034 0.01875,-0.019 0.0375,-0.038 0.09,-0.082 0.17625,-0.1537 0.09,-0.075 0.1725,-0.1275 0.08625,-0.053 0.16875,-0.075 0.08625,-0.026 0.165,-0 0.06375,0.019 0.09,0.053 0.02625,0.034 0.03375,0.06 0.03375,0.086 -0.015,0.1763 -0.04875,0.09 -0.12375,0.1987 -0.0075,0.01 -0.01875,0.026 -0.0075,0.015 -0.01875,0.03 0.05625,-0.022 0.1425,-0.053 0.09,-0.034 0.22125,-0.086 0.04875,-0.015 0.09,0.01 0.04125,0.019 0.05625,0.064 0.01875,0.041 -0.0038,0.086 -0.01875,0.041 -0.06,0.06 -0.12,0.041 -0.2175,0.075 -0.0975,0.034 -0.165,0.06 -0.0375,0.015 -0.0675,0.026 -0.02625,0.01 -0.04875,0.015 -0.03,0.01 -0.04875,0.015 -0.015,0 -0.03375,0 z"
           id="path4222"
           style="" />
        <path
           d="m 14.446715,1047.4672 q -0.03,0 -0.05625,-0 -0.0225,-0 -0.04875,-0.011 -0.0675,-0.019 -0.09375,-0.079 -0.03375,-0.075 0,-0.18 0.0375,-0.1087 0.12,-0.2775 0.015,-0.03 0.03,-0.067 0.015,-0.038 0.03375,-0.071 -0.04875,0.019 -0.105,0.064 -0.0525,0.041 -0.10875,0.086 -0.0375,0.03 -0.0825,0.022 -0.04875,-0.01 -0.07875,-0.041 -0.03,-0.038 -0.0225,-0.082 0.0075,-0.045 0.04125,-0.079 0.0525,-0.037 0.10875,-0.082 0.05625,-0.045 0.12,-0.075 0.15375,-0.079 0.28125,-0.041 0.06,0.011 0.09,0.075 0.03,0.064 -0.0038,0.15 -0.03,0.086 -0.105,0.2438 -0.01875,0.045 -0.04125,0.09 -0.01875,0.045 -0.0375,0.086 -0.0075,0.015 -0.01125,0.026 -0.0038,0.011 -0.0075,0.022 0.0375,-0 0.09375,-0.022 0.06,-0.019 0.135,-0.056 0.07875,-0.041 0.18,-0.1087 0.10125,-0.067 0.2325,-0.1688 0.10125,-0.082 0.19125,-0.1612 0.09,-0.079 0.1575,-0.1425 0.0675,-0.064 0.10875,-0.105 0.04125,-0.041 0.04125,-0.041 0.045,-0.053 0.10875,-0.034 0.03,0.01 0.04875,0.026 0.01875,0.019 0.03,0.037 0.02625,0.053 0.0038,0.1238 -0.0225,0.071 -0.0825,0.2212 -0.0225,0.049 -0.045,0.098 -0.01875,0.049 -0.0375,0.09 -0.0038,0.019 -0.01125,0.041 0.0525,-0.01 0.1125,-0.041 0.06,-0.034 0.12,-0.075 0.06,-0.041 0.1125,-0.086 0.0525,-0.049 0.09375,-0.082 0.0375,-0.034 0.0825,-0.03 0.045,0 0.07875,0.037 0.03,0.038 0.02625,0.083 0,0.045 -0.0375,0.079 -0.08625,0.079 -0.17625,0.15 -0.09,0.068 -0.18375,0.12 -0.09,0.049 -0.18375,0.071 -0.09375,0.019 -0.18375,-0 -0.06,-0.023 -0.08625,-0.075 -0.0225,-0.053 -0.015,-0.1125 0.01125,-0.064 0.045,-0.1612 -0.04125,0.037 -0.08625,0.071 -0.04125,0.034 -0.09,0.075 -0.5175,0.4088 -0.80625,0.4088 z"
           id="path4224"
           style="" />
        <path
           d="m 17.455153,1047.2159 q -0.02625,0 -0.04875,-0.01 -0.07125,-0.015 -0.10125,-0.086 -0.0225,-0.064 0.01125,-0.1425 0.03375,-0.079 0.0975,-0.1763 0.0225,-0.034 0.04125,-0.068 0.0225,-0.037 0.0375,-0.067 0.01125,-0.015 0.01875,-0.037 -0.1125,-0.019 -0.2625,-0.01 -0.14625,0.01 -0.33,0.056 -0.165,0.041 -0.34875,0.1087 -0.18375,0.064 -0.39,0.1538 -0.04125,0.019 -0.0825,0 -0.04125,-0.019 -0.06,-0.06 -0.0225,-0.041 -0.0038,-0.086 0.01875,-0.045 0.06,-0.064 0.21375,-0.094 0.40125,-0.1612 0.19125,-0.071 0.3675,-0.1125 0.46125,-0.1163 0.75375,-0.037 0.08625,0.023 0.12,0.105 0.03375,0.086 -0.015,0.1875 -0.04875,0.097 -0.11625,0.2062 -0.0075,0.01 -0.015,0.019 -0.0038,0.011 -0.01125,0.026 0.08625,-0.019 0.25125,-0.075 0.16875,-0.056 0.46875,-0.165 0.04125,-0.015 0.0825,0.01 0.045,0.019 0.06,0.064 0.01875,0.041 0,0.086 -0.01875,0.041 -0.0675,0.06 -0.1725,0.06 -0.315,0.1088 -0.1425,0.049 -0.255,0.082 -0.15375,0.045 -0.2325,0.064 -0.075,0.015 -0.11625,0.015 z"
           id="path4226"
           style="" />
        <path
           d="m 18.823317,1047.4747 q -0.01875,0 -0.0375,-0 -0.01875,0 -0.04125,-0 -0.045,-0.015 -0.075,-0.064 -0.01125,-0.022 -0.015,-0.053 -0.0038,-0.034 0.0075,-0.097 0.015,-0.064 0.045,-0.1725 0.03375,-0.1125 0.09,-0.2887 -0.08625,0.03 -0.19125,0.071 -0.105,0.041 -0.2175,0.082 -0.04125,0.015 -0.0825,-0 -0.045,-0.023 -0.06375,-0.067 -0.015,-0.041 0.0075,-0.082 0.01875,-0.045 0.06375,-0.064 0.12,-0.045 0.2325,-0.086 0.1125,-0.041 0.19875,-0.071 0.08625,-0.034 0.13875,-0.053 0.0525,-0.023 0.0525,-0.023 0.0375,-0.015 0.07125,-0 0.04875,0.011 0.07125,0.056 0.01875,0.034 0.01125,0.06 -0.0038,0.026 -0.01125,0.056 -0.0075,0.015 -0.01125,0.034 -0.0038,0.015 -0.01125,0.037 -0.02625,0.064 -0.05625,0.1575 -0.02625,0.09 -0.05625,0.1838 -0.01875,0.053 -0.03,0.09 -0.01125,0.037 -0.01875,0.067 0.07125,-0.015 0.20625,-0.086 0.11625,-0.064 0.2475,-0.1462 0.13125,-0.082 0.27375,-0.18 0.03,-0.019 0.06,-0.038 0.03,-0.019 0.06,-0.041 0.04125,-0.026 0.08625,-0.015 0.045,0.01 0.075,0.049 0.02625,0.041 0.015,0.086 -0.0075,0.041 -0.04875,0.068 -0.03,0.023 -0.06375,0.045 -0.03,0.019 -0.06375,0.041 -0.1425,0.094 -0.2775,0.18 -0.135,0.086 -0.255,0.15 -0.24375,0.1275 -0.38625,0.1275 z"
           id="path4228"
           style="" />
        <path
           d="m 20.11566,1047.4672 q -0.03,0 -0.05625,-0 -0.0225,-0 -0.04875,-0.011 -0.0675,-0.019 -0.09375,-0.079 -0.03375,-0.075 0,-0.18 0.0375,-0.1087 0.12,-0.2775 0.015,-0.03 0.03,-0.067 0.015,-0.038 0.03375,-0.071 -0.04875,0.019 -0.105,0.064 -0.0525,0.041 -0.10875,0.086 -0.0375,0.03 -0.0825,0.022 -0.04875,-0.01 -0.07875,-0.041 -0.03,-0.038 -0.0225,-0.082 0.0075,-0.045 0.04125,-0.079 0.0525,-0.037 0.10875,-0.082 0.05625,-0.045 0.12,-0.075 0.15375,-0.079 0.28125,-0.041 0.06,0.011 0.09,0.075 0.03,0.064 -0.0038,0.15 -0.03,0.086 -0.105,0.2438 -0.01875,0.045 -0.04125,0.09 -0.01875,0.045 -0.0375,0.086 -0.0075,0.015 -0.01125,0.026 -0.0038,0.011 -0.0075,0.022 0.0375,-0 0.09375,-0.022 0.06,-0.019 0.135,-0.056 0.07875,-0.041 0.18,-0.1087 0.10125,-0.067 0.2325,-0.1688 0.10125,-0.082 0.19125,-0.1612 0.09,-0.079 0.1575,-0.1425 0.0675,-0.064 0.10875,-0.105 0.04125,-0.041 0.04125,-0.041 0.045,-0.053 0.10875,-0.034 0.03,0.01 0.04875,0.026 0.01875,0.019 0.03,0.037 0.02625,0.053 0.0038,0.1238 -0.0225,0.071 -0.0825,0.2212 -0.0225,0.049 -0.045,0.098 -0.01875,0.049 -0.0375,0.09 -0.0038,0.019 -0.01125,0.041 0.0525,-0.01 0.1125,-0.041 0.06,-0.034 0.12,-0.075 0.06,-0.041 0.1125,-0.086 0.0525,-0.049 0.09375,-0.082 0.0375,-0.034 0.0825,-0.03 0.045,0 0.07875,0.037 0.03,0.038 0.02625,0.083 0,0.045 -0.0375,0.079 -0.08625,0.079 -0.17625,0.15 -0.09,0.068 -0.18375,0.12 -0.09,0.049 -0.18375,0.071 -0.09375,0.019 -0.18375,-0 -0.06,-0.023 -0.08625,-0.075 -0.0225,-0.053 -0.015,-0.1125 0.01125,-0.064 0.045,-0.1612 -0.04125,0.037 -0.08625,0.071 -0.04125,0.034 -0.09,0.075 -0.5175,0.4088 -0.80625,0.4088 z"
           id="path4230"
           style="" />
        <path
           d="m 22.280348,1047.4747 q -0.01875,0 -0.0375,-0 -0.01875,0 -0.04125,-0 -0.045,-0.015 -0.075,-0.064 -0.01125,-0.022 -0.015,-0.053 -0.0038,-0.034 0.0075,-0.097 0.015,-0.064 0.045,-0.1725 0.03375,-0.1125 0.09,-0.2887 -0.08625,0.03 -0.19125,0.071 -0.105,0.041 -0.2175,0.082 -0.04125,0.015 -0.0825,-0 -0.045,-0.023 -0.06375,-0.067 -0.015,-0.041 0.0075,-0.082 0.01875,-0.045 0.06375,-0.064 0.12,-0.045 0.2325,-0.086 0.1125,-0.041 0.19875,-0.071 0.08625,-0.034 0.13875,-0.053 0.0525,-0.023 0.0525,-0.023 0.0375,-0.015 0.07125,-0 0.04875,0.011 0.07125,0.056 0.01875,0.034 0.01125,0.06 -0.0038,0.026 -0.01125,0.056 -0.0075,0.015 -0.01125,0.034 -0.0038,0.015 -0.01125,0.037 -0.02625,0.064 -0.05625,0.1575 -0.02625,0.09 -0.05625,0.1838 -0.01875,0.053 -0.03,0.09 -0.01125,0.037 -0.01875,0.067 0.07125,-0.015 0.20625,-0.086 0.11625,-0.064 0.2475,-0.1462 0.13125,-0.082 0.27375,-0.18 0.03,-0.019 0.06,-0.038 0.03,-0.019 0.06,-0.041 0.04125,-0.026 0.08625,-0.015 0.045,0.01 0.075,0.049 0.02625,0.041 0.015,0.086 -0.0075,0.041 -0.04875,0.068 -0.03,0.023 -0.06375,0.045 -0.03,0.019 -0.06375,0.041 -0.1425,0.094 -0.2775,0.18 -0.135,0.086 -0.255,0.15 -0.24375,0.1275 -0.38625,0.1275 z"
           id="path4232"
           style="" />
      </g>
      <rect
         y="-1031.3622"
         x="3"
         height="1.0000174"
         width="26"
         id="rect4322"
         style="opacity:0.6;fill:#ffffff;fill-opacity:1;stroke:none;stroke-width:2;stroke-linecap:square;stroke-linejoin:round;stroke-miterlimit:4;stroke-dasharray:none;stroke-opacity:1"
         transform="scale(1,-1)" />
      <rect
         transform="scale(1,-1)"
         style="opacity:0.3;fill:#333333;fill-opacity:1;stroke:none;stroke-width:2;stroke-linecap:square;stroke-linejoin:round;stroke-miterlimit:4;stroke-dasharray:none;stroke-opacity:1"
         id="rect4316"
         width="26"
         height="1.0000174"
         x="3"
         y="-1030.3622" />
      <rect
         transform="scale(1,-1)"
         style="opacity:0.6;fill:#ffffff;fill-opacity:1;stroke:none;stroke-width:2;stroke-linecap:square;stroke-linejoin:round;stroke-miterlimit:4;stroke-dasharray:none;stroke-opacity:1"
         id="rect4324"
         width="26"
         height="1.0000174"
         x="3"
         y="-1038.3622" />
      <rect
         y="-1037.3622"
         x="3"
         height="1.0000174"
         width="26"
         id="rect4318"
         style="opacity:0.3;fill:#333333;fill-opacity:1;stroke:none;stroke-width:2;stroke-linecap:square;stroke-linejoin:round;stroke-miterlimit:4;stroke-dasharray:none;stroke-opacity:1"
         transform="scale(1,-1)" />
      <rect
         y="-1045.3622"
         x="3"
         height="1.0000174"
         width="26"
         id="rect4326"
         style="opacity:0.6;fill:#ffffff;fill-opacity:1;stroke:none;stroke-width:2;stroke-linecap:square;stroke-linejoin:round;stroke-miterlimit:4;stroke-dasharray:none;stroke-opacity:1"
         transform="scale(1,-1)" />
      <rect
         transform="scale(1,-1)"
         style="opacity:0.3;fill:#333333;fill-opacity:1;stroke:none;stroke-width:2;stroke-linecap:square;stroke-linejoin:round;stroke-miterlimit:4;stroke-dasharray:none;stroke-opacity:1"
         id="rect4320"
         width="26"
         height="1.0000174"
         x="3"
         y="-1044.3622" />
      <rect
         y="1023.3622"
         x="9"
         height="26"
         width="1"
         id="rect4294"
         style="opacity:0.6;fill:#da4d45;fill-opacity:1;stroke:none;stroke-width:2;stroke-linecap:square;stroke-linejoin:round;stroke-miterlimit:4;stroke-dasharray:none;stroke-opacity:1" />
      <g
         id="g4382">
        <rect
           y="1023.3622"
           x="3"
           height="6"
           width="6"
           id="rect4376"
           style="opacity:0.01;fill:#000000;fill-opacity:0.00392157;stroke:none;stroke-width:2;stroke-linecap:square;stroke-linejoin:round;stroke-miterlimit:4;stroke-dasharray:none;stroke-opacity:1" />
        <path
           style="opacity:1;fill:#ffffff;fill-opacity:1;stroke:none;stroke-width:2;stroke-linecap:square;stroke-linejoin:round;stroke-miterlimit:4;stroke-dasharray:none;stroke-opacity:1"
           d="m 7.3009823,1025.6047 -1.7676659,2.1066 -0.9575556,-0.8034 -0.6427876,0.766 1.7236,1.4463 2.4104536,-2.8727 z"
           id="path4378" />
        <path
           id="rect4369"
           d="m 7.3009823,1024.6044 -1.7676659,2.1066 -0.9575556,-0.8034 -0.6427876,0.766 1.7236,1.4463 2.4104536,-2.8727 z"
           style="opacity:1;fill:url(#linearGradient4374);fill-opacity:1;stroke:none;stroke-width:2;stroke-linecap:square;stroke-linejoin:round;stroke-miterlimit:4;stroke-dasharray:none;stroke-opacity:1" />
      </g>
      <g
         transform="translate(0,14.000017)"
         id="g4397">
        <rect
           y="1023.3622"
           x="3"
           height="6"
           width="6"
           id="rect4399"
           style="opacity:0.01000001;fill:#000000;fill-opacity:0.00392157;stroke:none;stroke-width:2;stroke-linecap:square;stroke-linejoin:round;stroke-miterlimit:4;stroke-dasharray:none;stroke-opacity:1" />
        <path
           style="opacity:1;fill:#ffffff;fill-opacity:1;stroke:none;stroke-width:2;stroke-linecap:square;stroke-linejoin:round;stroke-miterlimit:4;stroke-dasharray:none;stroke-opacity:1"
           d="m 7.3009823,1025.6047 -1.7676659,2.1066 -0.9575556,-0.8034 -0.6427876,0.766 1.7236,1.4463 2.4104536,-2.8727 z"
           id="path4401" />
        <path
           id="path4403"
           d="m 7.3009823,1024.6044 -1.7676659,2.1066 -0.9575556,-0.8034 -0.6427876,0.766 1.7236,1.4463 2.4104536,-2.8727 z"
           style="opacity:1;fill:url(#linearGradient4405);fill-opacity:1;stroke:none;stroke-width:2;stroke-linecap:square;stroke-linejoin:round;stroke-miterlimit:4;stroke-dasharray:none;stroke-opacity:1" />
      </g>
      <g
         id="g4407"
         transform="translate(0,21.000017)">
        <rect
           style="opacity:0.01000001;fill:#000000;fill-opacity:0.00392157;stroke:none;stroke-width:2;stroke-linecap:square;stroke-linejoin:round;stroke-miterlimit:4;stroke-dasharray:none;stroke-opacity:1"
           id="rect4409"
           width="6"
           height="6"
           x="3"
           y="1023.3622" />
        <path
           style="opacity:1;fill:url(#linearGradient4415);fill-opacity:1;stroke:none;stroke-width:2;stroke-linecap:square;stroke-linejoin:round;stroke-miterlimit:4;stroke-dasharray:none;stroke-opacity:1"
           d="m 7.3009823,1024.6044 -1.7676659,2.1066 -0.9575556,-0.8034 -0.6427876,0.766 1.7236,1.4463 2.4104536,-2.8727 z"
           id="path4413" />
      </g>
    </g>
    <g
       transform="translate(4.5656123e-6,-2.055508e-7)"
       id="g4277">
      <path
         style="opacity:0.5;fill:none;fill-opacity:1;stroke:url(#linearGradient4247);stroke-width:2;stroke-linecap:square;stroke-linejoin:round;stroke-miterlimit:4;stroke-dasharray:none;stroke-opacity:1"
         d="m 21.969969,1029.9741 c -0.424388,-0.3561 -1.052728,-0.3011 -1.408832,0.1232 l -6.427876,7.6605 -3.064178,-2.5712 c -0.424388,-0.3561 -1.052727,-0.3011 -1.4088318,0.1233 l -1.2855752,1.5321 c -0.3561043,0.4244 -0.3011318,1.0527 0.1232568,1.4088 l 5.3623112,4.4995 c 0.424389,0.3561 1.052728,0.3012 1.408832,-0.1232 l 8.356239,-9.9586 c 0.356104,-0.4244 0.301132,-1.0527 -0.123257,-1.4088 z"
         id="path4239" />
      <path
         id="rect4224"
         d="m 21.969969,1029.9741 c -0.424388,-0.3561 -1.052728,-0.3011 -1.408832,0.1232 l -6.427876,7.6605 -3.064178,-2.5712 c -0.424388,-0.3561 -1.052727,-0.3011 -1.4088318,0.1233 l -1.2855752,1.5321 c -0.3561043,0.4244 -0.3011318,1.0527 0.1232568,1.4088 l 5.3623112,4.4995 c 0.424389,0.3561 1.052728,0.3012 1.408832,-0.1232 l 8.356239,-9.9586 c 0.356104,-0.4244 0.301132,-1.0527 -0.123257,-1.4088 z"
         style="opacity:1;fill:url(#linearGradient4237);fill-opacity:1;stroke:none;stroke-width:2;stroke-linecap:square;stroke-linejoin:round;stroke-miterlimit:4;stroke-dasharray:none;stroke-opacity:1" />
      <path
         id="path4249"
         d="m 21.969974,1029.974 c -0.424389,-0.3561 -1.052728,-0.3011 -1.408832,0.1233 l -6.427876,7.6604 -3.064178,-2.5711 c -0.424388,-0.3561 -1.052728,-0.3011 -1.4088319,0.1232 l -1.2855752,1.5321 c -0.3561044,0.4244 -0.3011318,1.0528 0.1232568,1.4089 l 1.9283633,-2.2982 3.830222,3.214 7.070663,-8.4265 2.298134,1.9283 c 0.356104,-0.4243 0.301132,-1.0527 -0.123257,-1.4088 l -1.532089,-1.2856 z"
         style="opacity:0.23999999;fill:#000000;fill-opacity:1;stroke:none;stroke-width:2;stroke-linecap:square;stroke-linejoin:round;stroke-miterlimit:4;stroke-dasharray:none;stroke-opacity:1" />
      <path
         id="rect4263"
         transform="matrix(0.76604444,0.64278761,-0.64278761,0.76604444,13.446744,1013.6844)"
         d="m 17,8 0,11 -5,0 0,3 1,0 0,-2 5,0 0,-11 2,0 0,-1 z"
         style="opacity:0.12000002;fill:#000000;fill-opacity:1;stroke:none;stroke-width:2;stroke-linecap:square;stroke-linejoin:round;stroke-miterlimit:4;stroke-dasharray:none;stroke-opacity:1" />
    </g>
  </g>
</svg>
